<?xml version="1.0" standalone="no"?>
<!DOCTYPE svg PUBLIC "-//W3C//DTD SVG 20010904//EN"
 "http://www.w3.org/TR/2001/REC-SVG-20010904/DTD/svg10.dtd">
<svg version="1.0" xmlns="http://www.w3.org/2000/svg"
 width="500.000000pt" height="500.000000pt" viewBox="0 0 500.000000 500.000000"
 preserveAspectRatio="xMidYMid meet">
<metadata>
Created by potrace 1.14, written by Peter Selinger 2001-2017
</metadata>
<g transform="translate(0.000000,500.000000) scale(0.100000,-0.100000)"
fill="#000000" stroke="none">
<path d="M1696 3413 c-2 -3 -68 -15 -83 -16 -7 0 -13 -3 -13 -7 0 -4 -16 -15
-35 -26 -19 -10 -35 -21 -35 -24 0 -3 -11 -17 -24 -31 -13 -14 -36 -51 -51
-83 -16 -33 -31 -54 -37 -50 -7 4 -8 2 -4 -5 9 -14 -22 -84 -34 -76 -4 3 -6
-3 -4 -13 3 -9 -4 -27 -15 -38 -11 -12 -18 -24 -16 -26 2 -2 -9 -29 -24 -61
-15 -31 -30 -55 -32 -52 -3 2 -6 -6 -6 -18 -1 -12 -8 -26 -15 -32 -7 -5 -15
-19 -16 -30 -2 -11 -8 -22 -13 -23 -5 -2 -7 -8 -3 -13 3 -5 0 -9 -6 -9 -6 0
-9 -4 -5 -10 3 -5 -2 -17 -12 -27 -10 -10 -17 -26 -15 -36 2 -9 -1 -17 -6 -17
-6 0 -16 -16 -22 -35 -7 -21 -16 -32 -22 -29 -6 4 -8 3 -5 -3 7 -12 -14 -73
-25 -73 -4 0 -8 -5 -8 -11 0 -22 -41 -99 -50 -94 -6 3 -7 -1 -4 -9 6 -16 -19
-71 -38 -82 -7 -4 -10 -4 -6 0 3 4 1 27 -7 51 -7 24 -10 47 -7 50 10 10 11 35
1 29 -5 -3 -6 -10 -3 -16 4 -6 2 -8 -4 -5 -5 4 -8 16 -5 27 3 11 0 27 -7 35
-10 12 -10 18 -1 29 10 11 8 17 -6 25 -12 7 -14 10 -4 11 11 0 10 5 -5 21 -14
16 -15 22 -5 28 10 6 9 10 -3 14 -12 5 -15 16 -11 44 3 27 2 34 -5 23 -8 -13
-10 -12 -11 5 -1 11 -1 28 -1 38 1 10 -3 15 -8 12 -6 -3 -10 -1 -10 4 0 6 6
11 13 11 8 0 8 3 -2 9 -19 12 -23 42 -9 58 8 10 7 12 -6 7 -9 -3 -16 -1 -16 5
0 6 5 11 12 11 6 0 3 7 -8 16 -10 8 -13 13 -6 9 17 -9 15 0 -4 19 -11 11 -12
16 -3 16 8 0 5 7 -7 16 -13 11 -14 14 -3 11 9 -3 16 1 16 8 0 8 -5 13 -11 12
-6 -1 -10 6 -8 17 2 12 -1 16 -9 10 -9 -5 -10 -2 -6 10 4 9 1 29 -6 44 -14 29
-15 41 -5 58 4 6 -2 21 -13 32 -11 12 -15 22 -9 22 7 0 4 7 -4 16 -20 20 -20
24 2 40 14 12 15 13 1 8 -10 -3 -20 0 -25 7 -4 8 -3 10 4 5 7 -4 12 -2 12 3 0
6 -4 11 -9 11 -5 0 -11 7 -14 14 -4 11 -1 13 11 9 11 -3 8 1 -6 11 -12 10 -20
21 -17 26 3 5 0 19 -5 32 l-11 23 -255 0 c-232 0 -257 -2 -265 -18 -6 -10 -6
-17 -1 -17 9 0 20 -42 25 -97 1 -11 6 -19 11 -15 5 3 7 -4 4 -16 -3 -12 -2
-22 2 -24 5 -2 11 -19 14 -39 3 -20 10 -49 16 -64 6 -16 8 -35 6 -42 -3 -8 -1
-11 4 -8 9 5 16 -40 11 -68 -1 -5 4 -5 10 -1 8 5 10 -1 7 -20 -3 -14 -1 -26 5
-26 5 0 7 -9 4 -20 -3 -11 -1 -18 4 -14 8 4 14 -33 10 -58 0 -5 3 -8 8 -8 5 0
11 -12 14 -27 14 -79 40 -178 49 -187 13 -15 9 -38 -4 -31 -7 4 -6 1 2 -7 9
-7 15 -20 15 -28 0 -8 2 -17 6 -20 4 -3 10 -21 12 -40 3 -19 6 -36 7 -37 2 -2
4 -7 5 -13 1 -5 3 -11 5 -12 1 -2 3 -10 5 -18 1 -8 8 -34 14 -58 7 -23 9 -48
5 -54 -4 -6 -3 -8 3 -5 12 8 20 -16 19 -55 -1 -14 2 -24 6 -22 8 5 10 -7 11
-53 1 -12 5 -20 9 -17 4 3 9 -2 9 -10 1 -9 2 -19 4 -23 7 -28 18 -89 16 -92
-2 -2 3 -8 11 -12 10 -7 11 -12 1 -28 -11 -17 -10 -19 1 -15 10 4 14 -1 12
-13 -2 -10 1 -21 6 -24 5 -3 10 -22 11 -41 1 -20 6 -34 11 -30 5 3 7 -5 4 -16
-4 -12 -2 -22 4 -22 6 0 8 -9 5 -20 -3 -11 -1 -18 4 -14 8 5 13 -12 12 -43 -1
-7 3 -10 8 -8 4 3 13 -3 18 -14 6 -11 8 -21 3 -24 -4 -2 -2 -3 4 -1 6 1 18 -6
27 -17 9 -10 13 -19 9 -20 -4 0 3 -4 16 -10 13 -5 20 -13 17 -19 -4 -6 -3 -9
2 -8 13 3 53 -13 53 -22 0 -4 11 -7 25 -5 14 1 28 -2 31 -7 3 -4 10 -6 15 -3
5 4 9 0 9 -7 0 -9 3 -9 10 2 9 13 10 13 10 0 0 -13 1 -13 10 0 8 12 10 12 10
-5 0 -16 2 -17 9 -6 5 8 19 16 32 18 18 3 20 1 10 -11 -8 -10 -9 -16 -1 -21 6
-4 9 -1 8 7 -2 7 5 12 15 12 14 -2 15 1 6 12 -10 13 -8 13 16 4 26 -10 27 -9
14 7 -7 10 -9 15 -5 11 5 -4 15 -3 22 2 6 6 18 9 25 8 8 -2 13 3 11 10 -2 11
10 16 31 13 4 0 7 7 7 16 0 15 2 16 10 3 8 -12 10 -11 10 8 0 23 10 28 25 13
6 -6 11 3 12 25 2 42 20 67 42 59 11 -3 10 0 -3 10 -16 12 -17 15 -4 15 21 0
52 49 53 84 0 16 7 32 14 34 9 3 11 0 6 -8 -5 -9 -4 -11 3 -6 9 5 9 13 2 27
-8 13 -7 19 0 19 6 0 8 6 4 13 -6 9 -5 9 7 0 12 -10 15 -8 16 8 1 12 -3 17
-10 13 -7 -3 -1 3 12 14 13 11 21 24 17 31 -4 6 0 11 11 12 13 0 14 2 4 6 -10
4 -8 9 10 19 13 7 18 13 12 14 -7 0 -13 5 -13 11 0 5 5 7 10 4 6 -3 10 2 10
13 0 10 10 24 23 31 22 11 22 11 -3 5 -23 -6 -22 -4 10 26 19 18 27 30 18 27
-15 -5 -16 -4 -5 13 6 11 19 20 27 20 11 0 12 2 2 8 -10 7 -8 14 7 34 11 14
17 28 14 32 -3 3 -1 6 5 6 7 0 11 5 9 11 -1 6 4 14 12 17 9 3 11 0 6 -8 -5 -9
-4 -11 4 -6 9 6 9 11 1 21 -8 9 -7 17 4 28 8 8 12 17 9 21 -4 3 -1 6 6 6 7 0
9 5 6 10 -3 6 -1 10 5 10 6 0 8 5 4 12 -5 7 -2 9 8 5 12 -4 14 -1 11 14 -3 10
4 33 16 51 11 18 21 29 21 24 0 -6 6 -1 14 10 10 13 11 23 4 31 -7 9 -7 13 1
14 26 3 30 4 38 12 4 5 3 8 -2 7 -28 -6 -36 0 -21 16 9 8 14 20 11 25 -4 5 -1
9 5 9 6 0 8 4 5 10 -3 5 0 7 8 4 10 -4 14 2 12 18 -2 13 2 30 9 38 14 18 51
27 41 10 -4 -7 -4 -15 1 -19 17 -12 35 -52 28 -63 -4 -6 -3 -8 3 -5 10 6 63
-97 63 -121 0 -7 5 -12 11 -12 6 0 9 -6 6 -14 -3 -8 1 -17 10 -20 9 -4 13 -13
9 -22 -3 -8 -2 -13 2 -10 4 3 14 -4 21 -16 10 -16 10 -19 -1 -13 -7 3 -5 0 5
-8 14 -11 15 -16 5 -20 -8 -3 -6 -6 6 -6 11 -1 16 -6 13 -15 -3 -8 1 -17 10
-20 8 -4 13 -13 9 -21 -3 -8 1 -18 8 -22 16 -10 40 -53 29 -53 -4 0 -3 -4 2
-8 17 -11 69 -106 54 -96 -8 4 -4 -5 9 -20 12 -16 20 -32 17 -36 -3 -4 2 -11
11 -14 9 -4 14 -13 10 -22 -3 -8 -2 -12 4 -9 6 3 10 0 10 -8 0 -8 7 -20 15
-27 8 -7 13 -16 10 -20 -3 -5 1 -15 9 -23 8 -8 12 -17 9 -21 -4 -3 -1 -6 6 -6
7 0 9 -4 6 -10 -3 -5 -1 -10 5 -10 6 0 9 -4 6 -9 -4 -5 -3 -11 1 -13 11 -4 59
-100 55 -111 -1 -5 2 -6 8 -2 9 6 14 -7 11 -28 0 -4 3 -7 9 -7 5 0 10 -6 10
-13 0 -7 11 -21 25 -31 14 -10 25 -25 25 -33 0 -8 4 -12 9 -8 6 3 13 0 18 -7
4 -7 20 -19 35 -27 15 -8 24 -19 21 -25 -4 -6 2 -4 12 4 14 11 17 12 11 1 -6
-9 -5 -12 5 -9 8 3 20 -2 27 -11 8 -9 11 -10 7 -3 -8 16 7 16 24 0 10 -9 12
-10 7 -1 -5 9 3 11 29 9 19 -2 35 0 35 6 0 5 4 7 9 3 5 -3 13 0 16 6 4 5 14 8
22 5 8 -3 12 -2 9 3 -3 5 1 14 9 21 13 11 14 10 9 -4 -11 -30 6 -17 21 17 8
17 13 25 11 16 -2 -9 2 -16 9 -16 8 0 11 7 7 15 -4 11 -2 13 9 7 11 -7 11 -5
-1 10 -9 11 -10 16 -2 11 7 -4 12 -1 12 8 0 10 6 13 17 9 12 -5 15 -2 10 9 -3
10 0 19 9 22 9 3 13 10 10 15 -3 5 2 15 11 22 14 12 16 12 8 0 -6 -10 -4 -12
4 -7 7 5 10 14 7 22 -3 7 4 20 14 27 11 8 17 17 13 21 -4 4 1 4 11 0 11 -4 17
-3 14 2 -4 5 0 24 8 43 10 23 19 31 29 27 13 -4 14 -2 5 14 -9 16 -8 20 5 20
18 0 20 16 3 24 -7 4 -3 4 9 2 12 -2 22 -1 21 3 -3 25 4 41 15 35 9 -5 9 -4 0
6 -9 10 -6 21 18 49 16 19 29 43 29 52 0 19 25 43 37 36 5 -3 8 7 7 21 -1 18
7 35 25 51 14 13 20 20 12 16 -10 -6 -12 -4 -7 4 5 7 15 10 23 6 13 -4 14 -3
3 10 -9 11 -9 15 -1 15 7 0 9 5 6 10 -3 6 1 10 9 10 8 0 18 5 22 12 5 8 2 9
-11 4 -15 -5 -16 -4 -5 9 7 8 16 13 20 10 5 -3 12 0 16 6 5 8 3 9 -6 4 -14 -9
-13 -4 12 47 7 16 17 28 21 28 5 0 5 -4 2 -10 -3 -5 -1 -10 5 -10 6 0 8 12 5
29 -4 26 -2 29 15 26 18 -3 19 -1 9 17 -10 19 -9 20 12 15 23 -6 23 -5 5 8
-11 8 -15 15 -10 15 6 0 19 18 30 40 10 22 23 40 27 40 4 0 3 -10 -3 -22 -10
-21 -10 -22 4 -5 8 11 13 27 11 38 -3 17 5 24 27 20 4 0 5 6 2 14 -4 8 -11 12
-17 8 -6 -4 -7 -1 -3 6 5 7 14 10 21 7 8 -3 12 2 10 12 -1 9 3 20 9 24 7 5 4
8 -6 8 -10 0 -18 5 -18 10 0 6 0 12 -1 15 0 2 -13 18 -30 36 -16 17 -29 37
-29 45 0 8 -4 14 -10 14 -5 0 -10 5 -10 11 0 6 -7 17 -15 26 -8 8 -13 19 -10
24 4 5 2 9 -4 9 -14 0 -52 56 -54 79 -1 12 -6 17 -16 13 -9 -3 -12 -1 -8 5 4
6 1 18 -7 26 -8 8 -12 17 -9 21 4 3 -1 6 -11 6 -13 0 -16 5 -11 20 4 14 2 20
-6 18 -7 -2 -18 7 -24 20 -14 31 -30 28 -58 -13 -13 -19 -27 -32 -32 -27 -5 4
-5 1 -1 -5 7 -13 -37 -87 -46 -78 -2 3 -5 -1 -5 -8 0 -17 -53 -97 -65 -97 -5
0 -6 -4 -3 -10 3 -5 1 -10 -4 -10 -6 0 -10 -3 -9 -7 3 -16 -15 -43 -25 -36 -5
3 -7 1 -3 -5 3 -6 -1 -17 -9 -25 -8 -9 -15 -20 -15 -26 0 -6 -4 -11 -10 -11
-5 0 -10 -5 -10 -11 0 -18 -63 -108 -72 -103 -5 3 -7 2 -6 -3 3 -12 -33 -83
-43 -83 -5 0 -9 -4 -9 -9 0 -17 -73 -120 -81 -115 -5 3 -6 -1 -4 -9 6 -13 -30
-67 -44 -67 -4 0 -15 15 -23 34 -13 25 -14 36 -5 45 9 9 6 13 -10 17 -15 4
-20 11 -16 22 4 10 2 13 -5 8 -15 -9 -16 6 -1 21 8 8 7 13 -2 18 -8 5 -10 4
-5 -3 4 -7 3 -12 -2 -12 -17 0 -32 46 -19 59 9 9 8 11 -5 6 -13 -5 -18 -2 -18
9 0 9 -8 25 -17 35 -21 25 -25 53 -10 64 8 5 5 7 -8 5 -16 -2 -20 3 -19 23 0
18 -4 25 -13 22 -9 -3 -13 4 -13 22 0 15 -4 24 -10 20 -9 -6 -14 10 -13 42 1
7 -2 11 -6 9 -4 -3 -13 4 -20 16 -7 11 -8 18 -3 14 5 -3 9 1 9 8 0 8 -6 12
-13 9 -9 -3 -12 2 -9 16 2 12 0 19 -5 16 -5 -3 -11 -1 -15 5 -3 5 -1 10 4 10
6 0 11 4 11 10 0 5 -6 7 -14 4 -8 -3 -16 3 -19 16 -4 15 -2 19 7 13 6 -4 0 2
-14 14 -14 13 -21 23 -17 23 5 0 -1 14 -13 30 -12 17 -18 30 -14 30 3 0 0 8
-7 17 -12 14 -12 16 1 9 9 -4 8 -1 -2 7 -10 8 -18 17 -18 21 0 4 -7 14 -15 22
-8 8 -12 21 -9 29 4 8 1 15 -6 15 -7 0 -10 8 -7 20 3 11 0 18 -7 17 -6 -1 -10
4 -9 11 2 6 -2 12 -8 12 -5 0 -7 5 -4 10 3 6 1 10 -4 10 -6 0 -11 9 -11 21 0
11 -4 18 -9 15 -7 -5 -25 21 -21 32 0 1 -11 13 -25 26 -13 13 -22 26 -18 30 4
4 -1 4 -12 0 -11 -4 -17 -4 -13 1 16 17 -91 54 -163 57 -39 2 -72 2 -73 1z
m-861 -273 c3 -5 1 -10 -4 -10 -6 0 -11 5 -11 10 0 6 2 10 4 10 3 0 8 -4 11
-10z m815 -594 c0 -3 -4 -8 -10 -11 -5 -3 -10 -1 -10 4 0 6 5 11 10 11 6 0 10
-2 10 -4z m-371 -712 c-14 -18 -24 -11 -15 11 3 9 11 13 16 10 8 -5 7 -11 -1
-21z"/>
<path d="M3365 3408 c-16 -4 -38 -6 -47 -4 -10 2 -22 -2 -29 -10 -6 -8 -15
-11 -20 -8 -5 3 -9 0 -9 -5 0 -6 -5 -11 -11 -11 -27 0 -139 -120 -139 -148 0
-7 7 -20 15 -28 8 -8 11 -22 8 -31 -4 -10 -2 -14 4 -10 15 9 36 -19 27 -35 -4
-7 -4 -10 1 -6 7 7 45 -32 45 -47 0 -4 10 -21 22 -38 13 -18 22 -38 20 -45 -2
-7 1 -11 7 -10 5 2 8 1 8 -2 -1 -3 8 -16 21 -30 12 -13 20 -30 17 -38 -2 -7
-1 -11 4 -8 12 8 84 -101 76 -114 -4 -6 -2 -9 5 -8 6 2 18 -10 28 -27 9 -16
20 -31 25 -33 4 -2 7 -8 7 -13 0 -5 16 -32 35 -60 19 -28 32 -56 28 -62 -3 -6
-1 -7 5 -3 7 4 12 2 12 -4 0 -6 7 -18 16 -27 8 -9 12 -23 9 -31 -3 -9 -3 -13
1 -10 13 14 69 -73 56 -87 -4 -5 -2 -5 4 -2 10 6 61 -70 56 -85 -1 -5 2 -8 7
-8 5 0 16 -12 26 -26 12 -18 13 -24 4 -19 -8 3 -5 -2 6 -12 12 -10 30 -34 40
-53 11 -19 26 -41 33 -48 7 -8 9 -18 6 -24 -4 -6 -3 -8 3 -5 8 5 33 -31 33
-46 0 -2 -27 0 -61 3 -33 3 -63 2 -65 -2 -3 -5 -10 -6 -15 -2 -9 5 -179 8
-204 4 -5 -2 -14 -1 -20 0 -32 7 -56 6 -61 -2 -3 -4 -10 -6 -15 -2 -17 10 -59
12 -65 2 -3 -4 -10 -6 -15 -2 -17 10 -59 12 -65 3 -3 -5 -13 -5 -22 0 -18 9
-56 -1 -67 -18 -3 -6 -11 -9 -16 -5 -5 3 -8 2 -7 -3 4 -14 -13 -53 -23 -53 -5
0 -9 -6 -9 -14 0 -8 -3 -16 -8 -18 -4 -1 -25 -31 -47 -65 -22 -34 -44 -59 -49
-56 -5 4 -6 2 -3 -4 8 -13 -47 -95 -58 -86 -4 5 -5 3 -2 -3 8 -14 -27 -66 -39
-57 -5 5 -6 4 -2 -1 4 -5 -1 -21 -11 -35 -30 -44 -31 -48 -14 -62 9 -8 14 -9
10 -2 -5 8 8 10 50 7 31 -3 59 -7 63 -9 3 -2 12 0 20 5 10 6 21 3 33 -7 17
-16 17 -16 11 2 -6 14 -4 16 7 9 8 -4 22 -7 33 -5 13 2 16 -1 10 -11 -6 -10
-4 -10 9 1 18 14 80 24 72 11 -6 -9 64 -5 73 4 3 3 14 -2 24 -11 18 -16 18
-16 12 2 -6 14 -4 16 7 9 8 -4 22 -7 33 -5 10 1 16 -1 13 -7 -4 -5 1 -9 9 -9
8 0 13 5 11 11 -3 7 10 11 33 11 21 0 36 -3 34 -6 -2 -4 3 -9 11 -12 10 -4 12
-1 8 10 -5 12 -3 14 8 7 8 -4 22 -7 33 -5 13 2 16 -1 10 -11 -4 -7 1 -5 12 4
11 9 28 15 39 13 11 -2 24 -4 29 -4 5 -1 2 -8 -5 -18 -13 -15 -12 -15 8 -3 12
8 20 18 17 22 -3 4 2 5 10 2 9 -3 14 -9 12 -13 -3 -4 8 -7 24 -6 15 0 26 4 23
8 -3 5 -12 6 -20 3 -8 -3 -12 -2 -9 3 8 13 79 7 84 -7 2 -7 8 -12 13 -12 6 0
7 5 4 10 -3 6 -3 10 2 11 54 4 91 3 87 -2 -2 -4 3 -9 11 -12 10 -4 12 -1 8 10
-5 12 -3 14 8 7 8 -4 22 -7 33 -5 13 2 16 -1 10 -11 -6 -10 -4 -10 9 1 19 15
80 24 71 10 -3 -5 -1 -9 5 -9 5 0 13 4 16 10 3 5 16 8 28 6 12 -3 26 -5 31 -5
5 -1 2 -8 -5 -18 -13 -15 -12 -15 8 -3 12 8 20 18 17 22 -3 4 2 5 10 2 9 -3
14 -9 12 -13 -3 -4 8 -7 24 -6 15 0 26 4 23 8 -3 5 -12 6 -22 2 -11 -4 -13 -3
-6 4 7 7 22 8 42 2 16 -5 36 -5 44 0 8 5 20 2 32 -8 17 -16 17 -16 11 2 -6 14
-4 16 7 9 8 -4 22 -7 33 -5 10 1 16 -1 13 -7 -4 -5 1 -9 9 -9 8 0 13 5 11 11
-3 7 10 11 33 11 21 0 36 -3 34 -6 -2 -4 3 -9 11 -12 10 -4 12 -1 8 10 -5 12
-3 14 8 7 8 -4 22 -7 33 -5 13 2 16 -1 10 -11 -6 -9 -3 -9 10 2 25 19 46 21
53 4 3 -8 9 -14 15 -14 5 0 6 5 3 10 -3 6 -3 10 2 11 54 4 91 3 87 -2 -2 -4 3
-9 11 -12 10 -4 12 -1 8 10 -5 12 -3 14 8 7 8 -4 22 -7 33 -5 12 2 16 -1 10
-10 -4 -7 3 -5 17 4 13 9 32 17 42 17 16 0 16 2 -3 22 -11 12 -20 26 -20 30 0
5 -9 18 -20 30 -10 12 -17 25 -14 30 3 4 0 8 -5 8 -6 0 -11 7 -11 15 0 8 -4
15 -10 15 -5 0 -10 6 -10 13 0 8 -9 22 -20 32 -14 13 -17 22 -10 30 8 10 6 13
-7 11 -13 -1 -18 6 -18 26 1 19 -3 24 -11 17 -7 -6 -17 3 -30 29 -10 20 -22
39 -27 40 -4 2 -5 8 -1 13 3 5 0 9 -7 9 -6 0 -9 8 -6 19 3 14 1 18 -9 14 -8
-3 -14 0 -14 7 0 7 -8 19 -17 26 -14 11 -14 13 -3 11 8 -2 12 -2 7 0 -4 3 -5
9 -2 14 4 5 -1 6 -9 3 -14 -6 -21 5 -17 29 0 4 -4 7 -10 7 -6 0 -9 7 -6 14 4
10 1 13 -9 9 -9 -3 -14 2 -14 17 0 11 -4 19 -9 16 -4 -3 -16 12 -26 34 -10 22
-22 40 -27 40 -5 0 -7 4 -4 9 3 5 -1 12 -10 15 -8 3 -12 10 -9 16 3 5 1 10 -4
10 -6 0 -11 7 -11 15 0 8 -5 15 -11 15 -8 0 -7 5 1 15 11 13 10 14 -3 10 -8
-4 -18 -1 -23 6 -5 8 -3 10 7 4 8 -5 1 4 -14 18 -15 15 -25 32 -22 37 3 6 2
10 -2 10 -5 0 -23 20 -40 44 -23 32 -28 47 -20 55 11 11 9 12 -15 15 -7 0 -19
15 -28 31 -8 17 -18 32 -22 33 -5 2 -8 12 -8 22 0 10 -9 26 -21 34 -12 8 -18
19 -15 25 4 6 -2 16 -13 22 -11 8 -17 19 -13 28 3 9 2 13 -3 9 -12 -11 -45 31
-38 49 4 10 2 14 -4 10 -5 -3 -20 13 -33 36 -13 23 -26 44 -29 47 -13 11 -53
72 -44 67 5 -3 10 0 10 7 0 9 -7 12 -15 8 -11 -4 -14 -1 -9 11 3 9 3 16 -1 16
-19 -3 -25 2 -12 11 13 8 13 10 -1 10 -22 0 -53 47 -36 53 7 3 5 6 -5 6 -10 1
-18 8 -18 16 0 8 -4 15 -8 15 -11 0 -45 60 -35 61 4 1 12 1 16 0 5 -1 6 3 2 9
-3 6 -11 8 -16 4 -14 -8 -39 15 -39 36 0 10 -12 25 -26 35 -14 9 -23 22 -20
30 3 10 0 12 -11 8 -11 -4 -14 -2 -9 5 4 7 2 12 -4 12 -17 0 -40 26 -32 35 4
5 2 5 -4 2 -7 -4 -17 -1 -23 6 -6 8 -29 20 -51 27 -22 7 -40 16 -40 20 0 3
-27 7 -61 8 -33 1 -63 3 -67 5 -4 2 -20 0 -37 -5z"/>
<path d="M2095 3131 c-3 -5 -2 -12 3 -15 5 -3 9 1 9 9 0 17 -3 19 -12 6z"/>
<path d="M855 3099 c-4 -6 -5 -12 -2 -15 2 -3 7 2 10 11 7 17 1 20 -8 4z"/>
<path d="M2148 3023 c7 -3 16 -2 19 1 4 3 -2 6 -13 5 -11 0 -14 -3 -6 -6z"/>
<path d="M1716 2702 c-3 -5 1 -9 9 -9 8 0 12 4 9 9 -3 4 -7 8 -9 8 -2 0 -6 -4
-9 -8z"/>
<path d="M2346 2622 c-3 -5 1 -9 9 -9 8 0 12 4 9 9 -3 4 -7 8 -9 8 -2 0 -6 -4
-9 -8z"/>
<path d="M986 2542 c-3 -5 1 -9 9 -9 8 0 12 4 9 9 -3 4 -7 8 -9 8 -2 0 -6 -4
-9 -8z"/>
<path d="M1610 2480 c-6 -11 -8 -20 -6 -20 3 0 10 9 16 20 6 11 8 20 6 20 -3
0 -10 -9 -16 -20z"/>
<path d="M4230 2479 c0 -5 5 -7 10 -4 6 3 10 8 10 11 0 2 -4 4 -10 4 -5 0 -10
-5 -10 -11z"/>
<path d="M3135 2369 c-4 -6 -5 -12 -2 -15 2 -3 7 2 10 11 7 17 1 20 -8 4z"/>
<path d="M1495 2260 c-3 -6 1 -7 9 -4 18 7 21 14 7 14 -6 0 -13 -4 -16 -10z"/>
<path d="M1475 2200 c3 -5 8 -10 11 -10 2 0 4 5 4 10 0 6 -5 10 -11 10 -5 0
-7 -4 -4 -10z"/>
<path d="M3025 2200 c-8 -13 5 -13 25 0 13 8 13 10 -2 10 -9 0 -20 -4 -23 -10z"/>
<path d="M2924 2029 c-4 -7 -3 -9 4 -5 5 3 13 0 15 -6 4 -9 6 -10 6 -1 1 17
-16 25 -25 12z"/>
<path d="M4571 1954 c0 -11 3 -14 6 -6 3 7 2 16 -1 19 -3 4 -6 -2 -5 -13z"/>
<path d="M2851 1874 c0 -11 3 -14 6 -6 3 7 2 16 -1 19 -3 4 -6 -2 -5 -13z"/>
<path d="M2786 1801 c-4 -5 -2 -12 3 -15 5 -4 12 -2 15 3 4 5 2 12 -3 15 -5 4
-12 2 -15 -3z"/>
<path d="M1225 1749 c-4 -6 -5 -12 -2 -15 2 -3 7 2 10 11 7 17 1 20 -8 4z"/>
<path d="M2895 1600 c-3 -5 -1 -10 4 -10 6 0 11 5 11 10 0 6 -2 10 -4 10 -3 0
-8 -4 -11 -10z"/>
<path d="M3146 1598 c3 -5 10 -6 15 -3 13 9 11 12 -6 12 -8 0 -12 -4 -9 -9z"/>
<path d="M3530 1599 c0 -5 5 -7 10 -4 6 3 10 8 10 11 0 2 -4 4 -10 4 -5 0 -10
-5 -10 -11z"/>
<path d="M3690 1598 c0 -4 4 -8 9 -8 6 0 12 4 15 8 3 5 -1 9 -9 9 -8 0 -15 -4
-15 -9z"/>
<path d="M3946 1598 c3 -5 10 -6 15 -3 13 9 11 12 -6 12 -8 0 -12 -4 -9 -9z"/>
<path d="M4010 1599 c0 -5 5 -7 10 -4 6 3 10 8 10 11 0 2 -4 4 -10 4 -5 0 -10
-5 -10 -11z"/>
<path d="M4490 1598 c0 -4 4 -8 9 -8 6 0 12 4 15 8 3 5 -1 9 -9 9 -8 0 -15 -4
-15 -9z"/>
<path d="M4756 1598 c3 -5 10 -6 15 -3 13 9 11 12 -6 12 -8 0 -12 -4 -9 -9z"/>
</g>
</svg>
