<svg width="104" height="104" viewBox="0 0 104 104" fill="none" xmlns="http://www.w3.org/2000/svg">
<g filter="url(#filter0_d_430_3)">
<path d="M36.7143 8.14286C36.7143 4.19196 33.5223 1 29.5714 1C25.6205 1 22.4286 4.19196 22.4286 8.14286V22.4286H8.14286C4.19196 22.4286 1 25.6205 1 29.5714C1 33.5223 4.19196 36.7143 8.14286 36.7143H29.5714C33.5223 36.7143 36.7143 33.5223 36.7143 29.5714V8.14286ZM8.14286 65.2857C4.19196 65.2857 1 68.4777 1 72.4286C1 76.3795 4.19196 79.5714 8.14286 79.5714H22.4286V93.8571C22.4286 97.808 25.6205 101 29.5714 101C33.5223 101 36.7143 97.808 36.7143 93.8571V72.4286C36.7143 68.4777 33.5223 65.2857 29.5714 65.2857H8.14286ZM79.5714 8.14286C79.5714 4.19196 76.3795 1 72.4286 1C68.4777 1 65.2857 4.19196 65.2857 8.14286V29.5714C65.2857 33.5223 68.4777 36.7143 72.4286 36.7143H93.8571C97.808 36.7143 101 33.5223 101 29.5714C101 25.6205 97.808 22.4286 93.8571 22.4286H79.5714V8.14286ZM72.4286 65.2857C68.4777 65.2857 65.2857 68.4777 65.2857 72.4286V93.8571C65.2857 97.808 68.4777 101 72.4286 101C76.3795 101 79.5714 97.808 79.5714 93.8571V79.5714H93.8571C97.808 79.5714 101 76.3795 101 72.4286C101 68.4777 97.808 65.2857 93.8571 65.2857H72.4286Z" fill="url(#paint0_linear_430_3)"/>
</g>
<defs>
<filter id="filter0_d_430_3" x="0" y="0" width="104" height="104" filterUnits="userSpaceOnUse" color-interpolation-filters="sRGB">
<feFlood flood-opacity="0" result="BackgroundImageFix"/>
<feColorMatrix in="SourceAlpha" type="matrix" values="0 0 0 0 0 0 0 0 0 0 0 0 0 0 0 0 0 0 127 0" result="hardAlpha"/>
<feOffset dx="1" dy="1"/>
<feGaussianBlur stdDeviation="1"/>
<feComposite in2="hardAlpha" operator="out"/>
<feColorMatrix type="matrix" values="0 0 0 0 0 0 0 0 0 0 0 0 0 0 0 0 0 0 1 0"/>
<feBlend mode="normal" in2="BackgroundImageFix" result="effect1_dropShadow_430_3"/>
<feBlend mode="normal" in="SourceGraphic" in2="effect1_dropShadow_430_3" result="shape"/>
</filter>
<linearGradient id="paint0_linear_430_3" x1="85" y1="16" x2="17" y2="84" gradientUnits="userSpaceOnUse">
<stop stop-color="#0057FF"/>
<stop offset="1" stop-color="#FF4040"/>
</linearGradient>
</defs>
</svg>
