<svg width="104" height="104" viewBox="0 0 104 104" fill="none" xmlns="http://www.w3.org/2000/svg">
<g filter="url(#filter0_d_635_127)">
<path d="M1 51C1 39.0948 5.24792 27.5804 12.9797 18.5276C20.7115 9.47485 31.4197 3.47796 43.1783 1.61559C54.9369 -0.246796 66.9741 2.14757 77.1249 8.36799C87.2757 14.5884 94.8739 24.2267 98.5528 35.5491L86.6646 39.4119C83.9054 30.92 78.2068 23.6913 70.5937 19.026C62.9806 14.3607 53.9526 12.5649 45.1337 13.9617C36.3148 15.3585 28.2836 19.8561 22.4848 26.6457C16.6859 33.4353 13.5 42.0711 13.5 51H1Z" fill="#434343"/>
<path d="M95.0002 36.5C92.0002 27.5 98.5 21.5 94.5003 12.5" stroke="#FF2121" stroke-width="7"/>
<path d="M101 51C101 62.9052 96.7521 74.4196 89.0203 83.4724C81.2885 92.5252 70.5803 98.522 58.8217 100.384C47.0631 102.247 35.0259 99.8524 24.8751 93.632C14.7243 87.4116 7.12607 77.7733 3.44717 66.4509L15.3354 62.5881C18.0946 71.08 23.7932 78.3087 31.4063 82.974C39.0194 87.6393 48.0474 89.4351 56.8663 88.0383C65.6852 86.6415 73.7164 82.1439 79.5152 75.3543C85.3141 68.5647 88.5 59.9289 88.5 51H101Z" fill="#434343"/>
<path d="M7 65.5C9.99998 74.5 3.844 81 7.84375 90" stroke="#FF2121" stroke-width="7"/>
</g>
<defs>
<filter id="filter0_d_635_127" x="0" y="-0.00012207" width="104" height="104" filterUnits="userSpaceOnUse" color-interpolation-filters="sRGB">
<feFlood flood-opacity="0" result="BackgroundImageFix"/>
<feColorMatrix in="SourceAlpha" type="matrix" values="0 0 0 0 0 0 0 0 0 0 0 0 0 0 0 0 0 0 127 0" result="hardAlpha"/>
<feOffset dx="1" dy="1"/>
<feGaussianBlur stdDeviation="1"/>
<feComposite in2="hardAlpha" operator="out"/>
<feColorMatrix type="matrix" values="0 0 0 0 0 0 0 0 0 0 0 0 0 0 0 0 0 0 1 0"/>
<feBlend mode="normal" in2="BackgroundImageFix" result="effect1_dropShadow_635_127"/>
<feBlend mode="normal" in="SourceGraphic" in2="effect1_dropShadow_635_127" result="shape"/>
</filter>
</defs>
</svg>
