<svg width="104" height="104" viewBox="0 0 104 104" fill="none" xmlns="http://www.w3.org/2000/svg">
<g filter="url(#filter0_d_431_10)">
<path d="M26 7.25C26 3.79297 23.207 1 19.75 1C16.293 1 13.5 3.79297 13.5 7.25V13.5H7.25C3.79297 13.5 1 16.293 1 19.75C1 23.207 3.79297 26 7.25 26H13.5V76C13.5 82.8945 19.1055 88.5 26 88.5H69.75V76H26V7.25ZM76 94.75C76 98.207 78.793 101 82.25 101C85.707 101 88.5 98.207 88.5 94.75V88.5H94.75C98.207 88.5 101 85.707 101 82.25C101 78.793 98.207 76 94.75 76H88.5V26C88.5 19.1055 82.8945 13.5 76 13.5H32.25V26H76V94.75Z" fill="url(#paint0_linear_431_10)"/>
</g>
<defs>
<filter id="filter0_d_431_10" x="0" y="0" width="104" height="104" filterUnits="userSpaceOnUse" color-interpolation-filters="sRGB">
<feFlood flood-opacity="0" result="BackgroundImageFix"/>
<feColorMatrix in="SourceAlpha" type="matrix" values="0 0 0 0 0 0 0 0 0 0 0 0 0 0 0 0 0 0 127 0" result="hardAlpha"/>
<feOffset dx="1" dy="1"/>
<feGaussianBlur stdDeviation="1"/>
<feComposite in2="hardAlpha" operator="out"/>
<feColorMatrix type="matrix" values="0 0 0 0 0 0 0 0 0 0 0 0 0 0 0 0 0 0 1 0"/>
<feBlend mode="normal" in2="BackgroundImageFix" result="effect1_dropShadow_431_10"/>
<feBlend mode="normal" in="SourceGraphic" in2="effect1_dropShadow_431_10" result="shape"/>
</filter>
<linearGradient id="paint0_linear_431_10" x1="51" y1="1" x2="51" y2="101" gradientUnits="userSpaceOnUse">
<stop stop-color="#0435C4"/>
<stop offset="1" stop-color="#32A4EF"/>
</linearGradient>
</defs>
</svg>
