<svg width="500" height="503" viewBox="0 0 500 503" fill="none" xmlns="http://www.w3.org/2000/svg">
<path d="M188.869 245.314C188.869 231.492 199.937 220.286 213.59 220.286H474.419C488.072 220.286 499.14 231.492 499.14 245.314V477.972C499.14 491.795 488.072 503 474.419 503H213.59C199.937 503 188.869 491.795 188.869 477.972V245.314Z" fill="url(#paint0_linear_723_12)"/>
<path fill-rule="evenodd" clip-rule="evenodd" d="M474.419 222.789H213.59C201.302 222.789 191.341 232.874 191.341 245.314V477.972C191.341 490.412 201.302 500.497 213.59 500.497H474.419C486.706 500.497 496.667 490.412 496.667 477.972V245.314C496.667 232.874 486.706 222.789 474.419 222.789ZM213.59 220.286C199.937 220.286 188.869 231.492 188.869 245.314V477.972C188.869 491.795 199.937 503 213.59 503H474.419C488.072 503 499.14 491.795 499.14 477.972V245.314C499.14 231.492 488.072 220.286 474.419 220.286H213.59Z" fill="black"/>
<path fill-rule="evenodd" clip-rule="evenodd" d="M266.398 371.857C265.62 371.547 265.199 371.502 265.038 371.522C264.818 371.55 264.297 371.738 263.402 372.249C262.554 372.732 261.498 373.43 260.255 374.324C257.771 376.109 254.619 378.622 251.029 381.629C243.854 387.64 234.996 395.571 226.368 403.484C217.742 411.393 209.355 419.274 203.124 425.178C200.009 428.129 197.433 430.586 195.636 432.306C194.738 433.165 194.034 433.84 193.555 434.3L192.826 435.002C192.825 435.002 192.823 435.004 191.971 434.098C191.118 433.192 191.119 433.191 191.119 433.191L191.854 432.484C192.334 432.023 193.039 431.347 193.939 430.486C195.738 428.765 198.317 426.305 201.435 423.35C207.672 417.441 216.069 409.551 224.708 401.629C233.345 393.709 242.235 385.747 249.453 379.7C253.06 376.679 256.266 374.121 258.823 372.283C260.1 371.365 261.235 370.612 262.189 370.068C263.096 369.55 263.987 369.133 264.73 369.039C265.533 368.937 266.439 369.184 267.303 369.528C268.209 369.889 269.251 370.434 270.391 371.115C272.675 372.48 275.473 374.465 278.577 376.846C284.791 381.613 292.332 388.047 299.614 394.495C306.9 400.946 313.943 407.426 319.163 412.292C321.773 414.726 323.929 416.756 325.432 418.179C326.183 418.89 326.772 419.449 327.173 419.831L327.63 420.267L327.785 420.414C327.785 420.415 327.787 420.417 326.938 421.326C326.089 422.236 326.089 422.235 326.088 422.235L325.934 422.087L325.479 421.654C325.08 421.274 324.493 420.716 323.744 420.007C322.245 418.588 320.094 416.562 317.488 414.133C312.277 409.276 305.251 402.811 297.987 396.378C290.718 389.942 283.228 383.554 277.084 378.841C274.009 376.482 271.298 374.564 269.134 373.271C268.051 372.623 267.135 372.151 266.398 371.857Z" fill="black"/>
<path fill-rule="evenodd" clip-rule="evenodd" d="M263.504 499.093C263.503 499.095 263.503 499.095 262.558 498.288C261.613 497.481 261.614 497.481 261.615 497.479L261.62 497.473L263.263 495.505C264.34 494.216 265.921 492.326 267.938 489.921C271.97 485.112 277.743 478.242 284.707 470.001C298.635 453.519 317.328 431.55 336.385 409.604C355.441 387.661 374.869 365.731 390.267 349.332C397.963 341.135 404.668 334.303 409.822 329.537C412.397 327.158 414.609 325.27 416.38 323.983C417.264 323.341 418.067 322.826 418.77 322.474C419.43 322.143 420.173 321.866 420.878 321.914C421.869 321.98 422.979 322.418 424.122 323.034C425.29 323.664 426.608 324.545 428.04 325.623C430.906 327.78 434.324 330.796 438.066 334.362C445.553 341.499 454.424 350.925 462.915 360.307C471.409 369.693 479.537 379.052 485.541 386.064C488.543 389.57 491.015 392.49 492.736 394.534C493.597 395.556 494.27 396.358 494.728 396.906L495.251 397.531L495.427 397.743C495.428 397.744 495.43 397.747 494.485 398.553C493.539 399.359 493.539 399.359 493.539 399.358L493.362 399.146L492.842 398.524C492.386 397.978 491.714 397.177 490.855 396.158C489.138 394.118 486.67 391.204 483.673 387.703C477.678 380.702 469.566 371.361 461.092 361.998C452.615 352.63 443.791 343.258 436.371 336.185C432.658 332.646 429.32 329.705 426.565 327.631C425.187 326.594 423.979 325.792 422.96 325.243C421.915 324.68 421.177 324.442 420.713 324.411C420.713 324.411 420.65 324.41 420.498 324.455C420.341 324.501 420.132 324.584 419.866 324.717C419.332 324.985 418.651 325.413 417.822 326.016C416.167 327.219 414.037 329.03 411.489 331.386C406.4 336.09 399.742 342.872 392.058 351.056C376.695 367.42 357.292 389.32 338.242 411.257C319.194 433.191 300.509 455.151 286.586 471.628C279.624 479.866 273.853 486.733 269.822 491.541C267.807 493.945 266.227 495.833 265.151 497.121L263.504 499.093Z" fill="black"/>
<path d="M292.808 278.399C292.808 295.748 278.917 309.811 261.781 309.811C244.646 309.811 230.754 295.748 230.754 278.399C230.754 261.05 244.646 246.986 261.781 246.986C278.917 246.986 292.808 261.05 292.808 278.399Z" fill="url(#paint1_linear_723_12)"/>
<path fill-rule="evenodd" clip-rule="evenodd" d="M261.781 307.309C277.552 307.309 290.336 294.365 290.336 278.399C290.336 262.432 277.552 249.489 261.781 249.489C246.011 249.489 233.226 262.432 233.226 278.399C233.226 294.365 246.011 307.309 261.781 307.309ZM261.781 309.811C278.917 309.811 292.808 295.748 292.808 278.399C292.808 261.05 278.917 246.986 261.781 246.986C244.646 246.986 230.754 261.05 230.754 278.399C230.754 295.748 244.646 309.811 261.781 309.811Z" fill="black"/>
<g filter="url(#filter0_d_723_12)">
<path d="M6.71143 28.0282C6.71143 14.2055 17.7794 3 31.4324 3H292.261C305.914 3 316.982 14.2055 316.982 28.0282V260.686C316.982 274.508 305.914 285.714 292.261 285.714H31.4324C17.7794 285.714 6.71143 274.508 6.71143 260.686V28.0282Z" fill="url(#paint2_linear_723_12)"/>
<path fill-rule="evenodd" clip-rule="evenodd" d="M292.261 5.50282H31.4324C19.1447 5.50282 9.18352 15.5878 9.18352 28.0282V260.686C9.18352 273.126 19.1447 283.211 31.4324 283.211H292.261C304.549 283.211 314.51 273.126 314.51 260.686V28.0282C314.51 15.5878 304.549 5.50282 292.261 5.50282ZM31.4324 3C17.7794 3 6.71143 14.2055 6.71143 28.0282V260.686C6.71143 274.508 17.7794 285.714 31.4324 285.714H292.261C305.914 285.714 316.982 274.508 316.982 260.686V28.0282C316.982 14.2055 305.914 3 292.261 3H31.4324Z" fill="black"/>
<path fill-rule="evenodd" clip-rule="evenodd" d="M83.6185 146.274C82.8211 145.913 82.4232 145.876 82.3057 145.893C82.1108 145.921 81.596 146.124 80.682 146.708C79.8216 147.257 78.747 148.049 77.4806 149.064C74.9509 151.091 71.7348 153.943 68.0697 157.356C60.7437 164.178 51.688 173.179 42.8623 182.158C34.0391 191.134 25.456 200.077 19.078 206.777C15.8892 210.126 13.252 212.914 11.4122 214.865C10.4924 215.841 9.77184 216.607 9.2814 217.129L8.534 217.925C8.53351 217.926 8.53103 217.928 7.63402 217.067C6.73701 216.206 6.73729 216.206 6.73782 216.205L7.49021 215.404C7.98165 214.881 8.70325 214.113 9.62428 213.137C11.4663 211.184 14.1062 208.392 17.2981 205.04C23.6814 198.334 32.2744 189.381 41.1101 180.392C49.9434 171.406 59.0295 162.373 66.3963 155.514C70.0775 152.086 73.3456 149.186 75.9463 147.101C77.2451 146.061 78.3973 145.207 79.3637 144.591C80.2766 144.008 81.1889 143.525 81.9597 143.415C82.8079 143.293 83.7535 143.594 84.6264 143.989C85.5502 144.406 86.613 145.034 87.7772 145.818C90.1097 147.389 92.9771 149.672 96.1625 152.41C102.54 157.893 110.3 165.294 117.799 172.71C125.303 180.131 132.563 187.584 137.946 193.181C140.637 195.979 142.861 198.315 144.411 199.951C145.186 200.769 145.793 201.412 146.207 201.851L146.679 202.352L146.838 202.522C146.839 202.522 146.841 202.525 145.944 203.386C145.048 204.247 145.047 204.247 145.047 204.247L144.418 203.578C144.006 203.141 143.401 202.5 142.627 201.684C141.08 200.051 138.861 197.72 136.174 194.927C130.8 189.339 123.555 181.901 116.072 174.501C108.584 167.096 100.874 159.744 94.5624 154.318C91.4034 151.602 88.6216 149.392 86.4082 147.902C85.2994 147.156 84.3651 146.611 83.6185 146.274Z" fill="black"/>
<path fill-rule="evenodd" clip-rule="evenodd" d="M78.5328 285.472C78.5316 285.474 78.5311 285.474 77.5858 284.668C76.6404 283.862 76.641 283.861 76.6422 283.86L76.6473 283.854L78.3224 281.844C79.42 280.529 81.0312 278.599 83.0858 276.145C87.195 271.235 93.0782 264.222 100.174 255.809C114.366 238.983 133.411 216.556 152.82 194.153C172.227 171.752 192.008 149.364 207.669 132.621C215.497 124.253 222.311 117.277 227.543 112.412C230.155 109.983 232.397 108.056 234.188 106.742C235.082 106.087 235.892 105.562 236.6 105.202C237.263 104.866 238.012 104.581 238.722 104.628C239.719 104.696 240.845 105.149 242.005 105.784C243.194 106.434 244.542 107.345 246.013 108.461C248.958 110.694 252.489 113.819 256.367 117.516C264.127 124.914 273.364 134.689 282.22 144.422C291.08 154.158 299.574 163.867 305.852 171.142C308.991 174.779 311.577 177.809 313.379 179.929C314.279 180.989 314.984 181.822 315.464 182.39L316.011 183.039L316.195 183.258C316.196 183.259 316.198 183.262 315.257 184.073C314.315 184.883 314.315 184.883 314.314 184.882L314.129 184.662L313.584 184.016C313.106 183.45 312.403 182.619 311.505 181.561C309.707 179.445 307.125 176.42 303.991 172.788C297.721 165.524 289.242 155.832 280.402 146.117C271.559 136.399 262.368 126.675 254.672 119.338C250.822 115.667 247.367 112.615 244.531 110.464C243.112 109.388 241.871 108.556 240.83 107.986C239.76 107.4 239.014 107.157 238.557 107.126C238.558 107.126 238.557 107.126 238.557 107.126C238.557 107.126 238.495 107.126 238.346 107.171C238.188 107.218 237.977 107.303 237.708 107.44C237.168 107.714 236.479 108.152 235.639 108.769C233.962 109.999 231.802 111.85 229.215 114.256C224.048 119.061 217.28 125.986 209.464 134.342C193.836 151.049 174.081 173.408 154.679 195.803C135.279 218.196 116.242 240.614 102.054 257.434C94.9604 265.844 89.0794 272.855 84.9718 277.763C82.9181 280.216 81.3077 282.145 80.2109 283.459L78.5328 285.472Z" fill="black"/>
<path d="M110.651 61.1138C110.651 78.4625 96.76 92.5265 79.6242 92.5265C62.4884 92.5265 48.5972 78.4625 48.5972 61.1138C48.5972 43.7651 62.4884 29.7012 79.6242 29.7012C96.76 29.7012 110.651 43.7651 110.651 61.1138Z" fill="url(#paint3_linear_723_12)"/>
<path fill-rule="evenodd" clip-rule="evenodd" d="M79.6242 90.0236C95.3947 90.0236 108.179 77.0803 108.179 61.1138C108.179 45.1474 95.3947 32.204 79.6242 32.204C63.8537 32.204 51.0693 45.1474 51.0693 61.1138C51.0693 77.0803 63.8537 90.0236 79.6242 90.0236ZM79.6242 92.5265C96.76 92.5265 110.651 78.4625 110.651 61.1138C110.651 43.7651 96.76 29.7012 79.6242 29.7012C62.4884 29.7012 48.5972 43.7651 48.5972 61.1138C48.5972 78.4625 62.4884 92.5265 79.6242 92.5265Z" fill="black"/>
</g>
<g filter="url(#filter1_d_723_12)">
<path fill-rule="evenodd" clip-rule="evenodd" d="M143.849 447.808C145.08 450.276 144.101 453.286 141.663 454.532L101.936 474.826C99.4981 476.072 96.5246 475.081 95.2945 472.613C94.0644 470.144 95.0435 467.134 97.4813 465.889L126.86 450.88C100.004 440.616 79.426 427.458 64.2121 410.424C46.9454 391.092 36.9357 367.157 32.1674 337.789L41.9249 336.165C46.4647 364.126 55.8469 386.132 71.5465 403.709C85.2773 419.083 104.105 431.365 129.467 441.174L114.976 412.097C113.746 409.629 114.725 406.619 117.162 405.373C119.6 404.128 122.574 405.119 123.804 407.587L143.849 447.808Z" fill="white"/>
</g>
<g filter="url(#filter2_d_723_12)">
<path fill-rule="evenodd" clip-rule="evenodd" d="M356.151 58.73C354.921 56.2619 355.9 53.2515 358.338 52.0061L398.065 31.7113C400.502 30.466 403.476 31.4572 404.706 33.9253C405.936 36.3935 404.957 39.4039 402.519 40.6492L373.14 55.6576C399.996 65.9221 420.574 79.0798 435.788 96.1138C453.055 115.446 463.065 139.381 467.833 168.749L458.076 170.373C453.536 142.412 444.154 120.406 428.454 102.828C414.723 87.4551 395.895 75.1724 370.533 65.3639L385.025 94.4406C386.255 96.9087 385.276 99.9191 382.838 101.165C380.4 102.41 377.427 101.419 376.197 98.9505L356.151 58.73Z" fill="white"/>
</g>
<defs>
<filter id="filter0_d_723_12" x="3.71143" y="0" width="320.271" height="292.714" filterUnits="userSpaceOnUse" color-interpolation-filters="sRGB">
<feFlood flood-opacity="0" result="BackgroundImageFix"/>
<feColorMatrix in="SourceAlpha" type="matrix" values="0 0 0 0 0 0 0 0 0 0 0 0 0 0 0 0 0 0 127 0" result="hardAlpha"/>
<feOffset dx="2" dy="2"/>
<feGaussianBlur stdDeviation="2.5"/>
<feComposite in2="hardAlpha" operator="out"/>
<feColorMatrix type="matrix" values="0 0 0 0 0 0 0 0 0 0 0 0 0 0 0 0 0 0 1 0"/>
<feBlend mode="normal" in2="BackgroundImageFix" result="effect1_dropShadow_723_12"/>
<feBlend mode="normal" in="SourceGraphic" in2="effect1_dropShadow_723_12" result="shape"/>
</filter>
<filter id="filter1_d_723_12" x="31.1675" y="335.165" width="116.213" height="143.199" filterUnits="userSpaceOnUse" color-interpolation-filters="sRGB">
<feFlood flood-opacity="0" result="BackgroundImageFix"/>
<feColorMatrix in="SourceAlpha" type="matrix" values="0 0 0 0 0 0 0 0 0 0 0 0 0 0 0 0 0 0 127 0" result="hardAlpha"/>
<feOffset dx="1" dy="1"/>
<feGaussianBlur stdDeviation="1"/>
<feComposite in2="hardAlpha" operator="out"/>
<feColorMatrix type="matrix" values="0 0 0 0 0 0 0 0 0 0 0 0 0 0 0 0 0 0 1 0"/>
<feBlend mode="normal" in2="BackgroundImageFix" result="effect1_dropShadow_723_12"/>
<feBlend mode="normal" in="SourceGraphic" in2="effect1_dropShadow_723_12" result="shape"/>
</filter>
<filter id="filter2_d_723_12" x="354.62" y="30.1736" width="116.213" height="143.199" filterUnits="userSpaceOnUse" color-interpolation-filters="sRGB">
<feFlood flood-opacity="0" result="BackgroundImageFix"/>
<feColorMatrix in="SourceAlpha" type="matrix" values="0 0 0 0 0 0 0 0 0 0 0 0 0 0 0 0 0 0 127 0" result="hardAlpha"/>
<feOffset dx="1" dy="1"/>
<feGaussianBlur stdDeviation="1"/>
<feComposite in2="hardAlpha" operator="out"/>
<feColorMatrix type="matrix" values="0 0 0 0 0 0 0 0 0 0 0 0 0 0 0 0 0 0 1 0"/>
<feBlend mode="normal" in2="BackgroundImageFix" result="effect1_dropShadow_723_12"/>
<feBlend mode="normal" in="SourceGraphic" in2="effect1_dropShadow_723_12" result="shape"/>
</filter>
<linearGradient id="paint0_linear_723_12" x1="344.004" y1="220.286" x2="344.004" y2="503" gradientUnits="userSpaceOnUse">
<stop stop-color="white"/>
<stop offset="1" stop-color="#FF4040"/>
</linearGradient>
<linearGradient id="paint1_linear_723_12" x1="261.781" y1="246.986" x2="261.781" y2="309.811" gradientUnits="userSpaceOnUse">
<stop stop-color="white"/>
<stop offset="1" stop-color="#FF4040"/>
</linearGradient>
<linearGradient id="paint2_linear_723_12" x1="161.847" y1="3" x2="161.847" y2="285.714" gradientUnits="userSpaceOnUse">
<stop stop-color="white"/>
<stop offset="1" stop-color="#0057FF"/>
</linearGradient>
<linearGradient id="paint3_linear_723_12" x1="79.6242" y1="29.7012" x2="79.6242" y2="92.5265" gradientUnits="userSpaceOnUse">
<stop stop-color="white"/>
<stop offset="1" stop-color="#0057FF"/>
</linearGradient>
</defs>
</svg>
