<svg width="260" height="263" viewBox="0 0 260 263" fill="none" xmlns="http://www.w3.org/2000/svg">
<path d="M98.2119 129.003C98.2119 121.816 103.967 115.989 111.067 115.989H246.697C253.797 115.989 259.552 121.816 259.552 129.003V249.985C259.552 257.173 253.797 263 246.697 263H111.067C103.967 263 98.2119 257.173 98.2119 249.985V129.003Z" fill="url(#paint0_linear_724_39)"/>
<path fill-rule="evenodd" clip-rule="evenodd" d="M246.697 117.29H111.067C104.677 117.29 99.4974 122.534 99.4974 129.003V249.985C99.4974 256.454 104.677 261.698 111.067 261.698H246.697C253.087 261.698 258.267 256.454 258.267 249.985V129.003C258.267 122.534 253.087 117.29 246.697 117.29ZM111.067 115.989C103.967 115.989 98.2119 121.816 98.2119 129.003V249.985C98.2119 257.173 103.967 263 111.067 263H246.697C253.797 263 259.552 257.173 259.552 249.985V129.003C259.552 121.816 253.797 115.989 246.697 115.989H111.067Z" fill="black"/>
<path fill-rule="evenodd" clip-rule="evenodd" d="M138.527 194.806C138.122 194.644 137.903 194.621 137.82 194.631C137.705 194.646 137.434 194.744 136.969 195.009C136.528 195.261 135.979 195.624 135.332 196.088C134.041 197.017 132.401 198.323 130.535 199.887C126.804 203.012 122.198 207.137 117.711 211.251C113.226 215.364 108.865 219.462 105.625 222.532C104.005 224.067 102.665 225.345 101.731 226.239C101.264 226.686 100.898 227.037 100.649 227.276L100.269 227.641C100.269 227.641 100.268 227.642 99.8246 227.171C99.3814 226.699 99.3816 226.699 99.3818 226.699L99.764 226.332C100.014 226.092 100.38 225.74 100.848 225.293C101.784 224.398 103.125 223.119 104.746 221.582C107.989 218.509 112.356 214.406 116.848 210.287C121.339 206.168 125.962 202.028 129.715 198.884C131.591 197.313 133.258 195.983 134.588 195.027C135.252 194.55 135.842 194.158 136.338 193.875C136.81 193.606 137.273 193.389 137.66 193.34C138.077 193.287 138.548 193.415 138.998 193.594C139.469 193.782 140.01 194.065 140.603 194.42C141.791 195.13 143.246 196.162 144.86 197.4C148.091 199.878 152.013 203.224 155.799 206.577C159.588 209.932 163.25 213.301 165.965 215.832C167.322 217.097 168.443 218.153 169.224 218.893C169.615 219.263 169.921 219.553 170.13 219.752L170.367 219.978L170.448 220.055C170.448 220.056 170.449 220.057 170.008 220.529C169.566 221.002 169.566 221.002 169.566 221.002L169.486 220.925L169.249 220.7C169.041 220.502 168.736 220.212 168.347 219.843C167.567 219.106 166.449 218.052 165.094 216.789C162.384 214.263 158.731 210.902 154.953 207.557C151.173 204.21 147.278 200.888 144.084 198.437C142.485 197.211 141.075 196.213 139.95 195.541C139.386 195.204 138.91 194.958 138.527 194.806Z" fill="black"/>
<path fill-rule="evenodd" clip-rule="evenodd" d="M137.022 260.968C137.021 260.969 137.021 260.969 136.53 260.55C136.039 260.13 136.039 260.13 136.04 260.129L136.042 260.126L136.897 259.102C137.457 258.432 138.279 257.449 139.327 256.199C141.424 253.698 144.426 250.126 148.048 245.84C155.29 237.27 165.01 225.846 174.92 214.434C184.829 203.024 194.932 191.62 202.938 183.093C206.94 178.83 210.427 175.277 213.107 172.799C214.446 171.562 215.597 170.58 216.518 169.911C216.977 169.577 217.395 169.309 217.76 169.126C218.103 168.954 218.49 168.81 218.856 168.835C219.372 168.87 219.949 169.097 220.543 169.417C221.151 169.745 221.836 170.203 222.581 170.764C224.071 171.886 225.848 173.454 227.794 175.308C231.687 179.019 236.3 183.921 240.716 188.799C245.132 193.68 249.359 198.547 252.481 202.193C254.042 204.016 255.328 205.535 256.223 206.597C256.67 207.129 257.02 207.546 257.259 207.831L257.53 208.156L257.622 208.266C257.622 208.267 257.624 208.268 257.132 208.687C256.64 209.107 256.64 209.106 256.64 209.106L256.548 208.996L256.278 208.672C256.04 208.388 255.691 207.972 255.245 207.442C254.351 206.381 253.068 204.866 251.51 203.046C248.392 199.405 244.174 194.548 239.768 189.679C235.359 184.808 230.771 179.934 226.913 176.256C224.982 174.416 223.246 172.886 221.814 171.808C221.097 171.269 220.469 170.852 219.939 170.566C219.396 170.273 219.012 170.15 218.771 170.134C218.771 170.134 218.738 170.133 218.659 170.156C218.577 170.181 218.468 170.224 218.33 170.293C218.052 170.432 217.699 170.655 217.267 170.968C216.407 171.594 215.299 172.536 213.974 173.76C211.328 176.207 207.866 179.733 203.87 183.989C195.881 192.498 185.792 203.886 175.886 215.293C165.981 226.699 156.265 238.118 149.024 246.686C145.404 250.97 142.403 254.541 140.307 257.041C139.26 258.291 138.438 259.273 137.878 259.943L137.022 260.968Z" fill="black"/>
<path d="M152.26 146.207C152.26 155.229 145.037 162.542 136.126 162.542C127.216 162.542 119.992 155.229 119.992 146.207C119.992 137.186 127.216 129.873 136.126 129.873C145.037 129.873 152.26 137.186 152.26 146.207Z" fill="url(#paint1_linear_724_39)"/>
<path fill-rule="evenodd" clip-rule="evenodd" d="M136.126 161.24C144.327 161.24 150.975 154.51 150.975 146.207C150.975 137.905 144.327 131.174 136.126 131.174C127.926 131.174 121.278 137.905 121.278 146.207C121.278 154.51 127.926 161.24 136.126 161.24ZM136.126 162.542C145.037 162.542 152.26 155.229 152.26 146.207C152.26 137.186 145.037 129.873 136.126 129.873C127.216 129.873 119.992 137.186 119.992 146.207C119.992 155.229 127.216 162.542 136.126 162.542Z" fill="black"/>
<g filter="url(#filter0_d_724_39)">
<path d="M3.48975 16.0146C3.48975 8.82685 9.24507 3 16.3446 3H151.975C159.075 3 164.83 8.82685 164.83 16.0146V136.996C164.83 144.184 159.075 150.011 151.975 150.011H16.3446C9.24508 150.011 3.48975 144.184 3.48975 136.996V16.0146Z" fill="url(#paint2_linear_724_39)"/>
<path fill-rule="evenodd" clip-rule="evenodd" d="M151.975 4.30146H16.3446C9.95503 4.30146 4.77523 9.54563 4.77523 16.0146V136.996C4.77523 143.465 9.95504 148.71 16.3446 148.71H151.975C158.365 148.71 163.545 143.465 163.545 136.996V16.0146C163.545 9.54563 158.365 4.30146 151.975 4.30146ZM16.3446 3C9.24507 3 3.48975 8.82685 3.48975 16.0146V136.996C3.48975 144.184 9.24508 150.011 16.3446 150.011H151.975C159.075 150.011 164.83 144.184 164.83 136.996V16.0146C164.83 8.82685 159.075 3 151.975 3H16.3446Z" fill="black"/>
<path fill-rule="evenodd" clip-rule="evenodd" d="M43.4814 77.5024C43.0667 77.315 42.8598 77.2955 42.7987 77.3043C42.6973 77.3188 42.4297 77.4247 41.9544 77.7281C41.507 78.0136 40.9482 78.4255 40.2896 78.9532C38.9742 80.0074 37.3019 81.4904 35.396 83.265C31.5865 86.8123 26.8775 91.4931 22.2882 96.162C17.7001 100.83 13.2369 105.48 9.92031 108.964C8.26213 110.706 6.89082 112.155 5.93413 113.17C5.45579 113.677 5.08112 114.075 4.82609 114.347L4.43744 114.761C4.43719 114.761 4.4359 114.763 3.96946 114.315C3.50301 113.867 3.50316 113.867 3.50343 113.867L3.89467 113.45C4.15023 113.178 4.52546 112.779 5.00439 112.271C5.96225 111.255 7.33497 109.804 8.99475 108.061C12.3141 104.574 16.7824 99.9182 21.377 95.244C25.9703 90.5711 30.6951 85.8741 34.5258 82.3071C36.4401 80.5247 38.1395 79.0165 39.4918 77.9328C40.1672 77.3916 40.7663 76.9479 41.2689 76.6271C41.7436 76.3241 42.218 76.073 42.6188 76.0156C43.0598 75.9525 43.5515 76.1088 44.0055 76.314C44.4858 76.5312 45.0385 76.8578 45.6439 77.2654C46.8568 78.082 48.3478 79.2694 50.0042 80.6934C53.3207 83.5445 57.3556 87.3927 61.2553 91.2492C65.1571 95.1079 68.9323 98.9835 71.7314 101.894C73.1311 103.349 74.2872 104.564 75.0934 105.414C75.4965 105.84 75.8122 106.174 76.0272 106.402L76.2725 106.663L76.3555 106.751C76.3557 106.752 76.3569 106.753 75.8906 107.201C75.4244 107.649 75.4243 107.649 75.4241 107.648L75.097 107.301C74.8829 107.073 74.5681 106.74 74.1659 106.315C73.3615 105.467 72.2076 104.255 70.8104 102.802C68.0156 99.896 64.2486 96.0287 60.3571 92.1803C56.4635 88.3298 52.454 84.5068 49.1722 81.6855C47.5295 80.2732 46.0829 79.124 44.932 78.3491C44.3554 77.9609 43.8696 77.6779 43.4814 77.5024Z" fill="black"/>
<path fill-rule="evenodd" clip-rule="evenodd" d="M40.8372 149.886C40.8366 149.886 40.8363 149.887 40.3447 149.467C39.8531 149.048 39.8534 149.048 39.854 149.047L39.8567 149.044L40.7278 147.999C41.2985 147.315 42.1363 146.312 43.2047 145.035C45.3415 142.482 48.4008 138.835 52.0907 134.461C59.4705 125.711 69.3737 114.049 79.4666 102.399C89.5583 90.7508 99.8442 79.1091 107.988 70.403C112.058 66.0513 115.602 62.4241 118.322 59.8944C119.681 58.631 120.847 57.6292 121.778 56.9459C122.242 56.605 122.664 56.332 123.032 56.1451C123.377 55.9701 123.766 55.8218 124.135 55.8467C124.654 55.8818 125.239 56.1175 125.843 56.4475C126.461 56.7857 127.162 57.2595 127.927 57.8397C129.458 59.0008 131.294 60.6257 133.311 62.548C137.346 66.3951 142.149 71.4784 146.755 76.5391C151.362 81.6019 155.779 86.6509 159.043 90.4336C160.676 92.3251 162.02 93.9003 162.957 95.0029C163.425 95.5542 163.792 95.9873 164.041 96.2827L164.326 96.6201L164.422 96.7343C164.422 96.7346 164.423 96.7362 163.933 97.1576C163.444 97.5791 163.444 97.5789 163.443 97.5786L163.347 97.4642L163.064 97.1283C162.815 96.8338 162.45 96.4017 161.982 95.8516C161.048 94.7512 159.705 93.1785 158.075 91.2899C154.815 87.5123 150.406 82.4725 145.809 77.421C141.21 72.3674 136.432 67.3108 132.43 63.4955C130.427 61.5867 128.631 59.9998 127.156 58.8813C126.418 58.3218 125.773 57.8888 125.231 57.5925C124.675 57.288 124.287 57.1614 124.05 57.1453C124.05 57.1454 124.05 57.1453 124.05 57.1453C124.05 57.1455 124.017 57.1454 123.94 57.1688C123.858 57.1934 123.748 57.2375 123.608 57.3085C123.327 57.451 122.969 57.6792 122.532 57.9997C121.66 58.6394 120.537 59.6019 119.192 60.8528C116.505 63.3516 112.986 66.9527 108.921 71.2979C100.795 79.9855 90.522 91.6122 80.433 103.258C70.3452 114.902 60.4459 126.559 53.0683 135.306C49.3795 139.679 46.3214 143.324 44.1855 145.876C43.1175 147.152 42.2801 148.155 41.7098 148.839L40.8372 149.886Z" fill="black"/>
<path d="M57.5386 33.2192C57.5386 42.2405 50.3151 49.5538 41.4046 49.5538C32.494 49.5538 25.2705 42.2405 25.2705 33.2192C25.2705 24.1979 32.494 16.8846 41.4046 16.8846C50.3151 16.8846 57.5386 24.1979 57.5386 33.2192Z" fill="url(#paint3_linear_724_39)"/>
<path fill-rule="evenodd" clip-rule="evenodd" d="M41.4046 48.2523C49.6052 48.2523 56.2531 41.5217 56.2531 33.2192C56.2531 24.9167 49.6052 18.1861 41.4046 18.1861C33.2039 18.1861 26.556 24.9167 26.556 33.2192C26.556 41.5217 33.2039 48.2523 41.4046 48.2523ZM41.4046 49.5538C50.3151 49.5538 57.5386 42.2405 57.5386 33.2192C57.5386 24.1979 50.3151 16.8846 41.4046 16.8846C32.494 16.8846 25.2705 24.1979 25.2705 33.2192C25.2705 42.2405 32.494 49.5538 41.4046 49.5538Z" fill="black"/>
</g>
<g filter="url(#filter1_d_724_39)">
<path fill-rule="evenodd" clip-rule="evenodd" d="M74.8018 234.3C75.4415 235.583 74.9324 237.149 73.6647 237.796L53.0068 248.35C51.7391 248.997 50.1929 248.482 49.5533 247.198C48.9136 245.915 49.4227 244.349 50.6904 243.702L65.9673 235.898C52.0023 230.56 41.3017 223.718 33.3904 214.86C24.4118 204.808 19.2067 192.361 16.7272 177.09L21.8011 176.246C24.1618 190.785 29.0405 202.228 37.2043 211.369C44.3443 219.363 54.1347 225.75 67.3231 230.85L59.7875 215.73C59.1478 214.447 59.6569 212.882 60.9246 212.234C62.1923 211.586 63.7385 212.102 64.3781 213.385L74.8018 234.3Z" fill="white"/>
</g>
<g filter="url(#filter2_d_724_39)">
<path fill-rule="evenodd" clip-rule="evenodd" d="M185.198 31.9795C184.559 30.6961 185.068 29.1307 186.335 28.4831L206.993 17.9298C208.261 17.2822 209.807 17.7977 210.447 19.0811C211.086 20.3645 210.577 21.9299 209.31 22.5775L194.033 30.3819C207.998 35.7194 218.698 42.5614 226.61 51.4191C235.588 61.4718 240.793 73.918 243.273 89.1892L238.199 90.0336C235.838 75.4942 230.959 64.0511 222.796 54.9107C215.656 46.9166 205.865 40.5296 192.677 35.4291L200.213 50.549C200.852 51.8324 200.343 53.3979 199.075 54.0455C197.808 54.6931 196.262 54.1776 195.622 52.8942L185.198 31.9795Z" fill="white"/>
</g>
<defs>
<filter id="filter0_d_724_39" x="0.489746" y="0" width="171.34" height="157.011" filterUnits="userSpaceOnUse" color-interpolation-filters="sRGB">
<feFlood flood-opacity="0" result="BackgroundImageFix"/>
<feColorMatrix in="SourceAlpha" type="matrix" values="0 0 0 0 0 0 0 0 0 0 0 0 0 0 0 0 0 0 127 0" result="hardAlpha"/>
<feOffset dx="2" dy="2"/>
<feGaussianBlur stdDeviation="2.5"/>
<feComposite in2="hardAlpha" operator="out"/>
<feColorMatrix type="matrix" values="0 0 0 0 0 0 0 0 0 0 0 0 0 0 0 0 0 0 1 0"/>
<feBlend mode="normal" in2="BackgroundImageFix" result="effect1_dropShadow_724_39"/>
<feBlend mode="normal" in="SourceGraphic" in2="effect1_dropShadow_724_39" result="shape"/>
</filter>
<filter id="filter1_d_724_39" x="15.7271" y="175.246" width="62.3511" height="76.3834" filterUnits="userSpaceOnUse" color-interpolation-filters="sRGB">
<feFlood flood-opacity="0" result="BackgroundImageFix"/>
<feColorMatrix in="SourceAlpha" type="matrix" values="0 0 0 0 0 0 0 0 0 0 0 0 0 0 0 0 0 0 127 0" result="hardAlpha"/>
<feOffset dx="1" dy="1"/>
<feGaussianBlur stdDeviation="1"/>
<feComposite in2="hardAlpha" operator="out"/>
<feColorMatrix type="matrix" values="0 0 0 0 0 0 0 0 0 0 0 0 0 0 0 0 0 0 1 0"/>
<feBlend mode="normal" in2="BackgroundImageFix" result="effect1_dropShadow_724_39"/>
<feBlend mode="normal" in="SourceGraphic" in2="effect1_dropShadow_724_39" result="shape"/>
</filter>
<filter id="filter2_d_724_39" x="183.922" y="16.6501" width="62.3511" height="76.3834" filterUnits="userSpaceOnUse" color-interpolation-filters="sRGB">
<feFlood flood-opacity="0" result="BackgroundImageFix"/>
<feColorMatrix in="SourceAlpha" type="matrix" values="0 0 0 0 0 0 0 0 0 0 0 0 0 0 0 0 0 0 127 0" result="hardAlpha"/>
<feOffset dx="1" dy="1"/>
<feGaussianBlur stdDeviation="1"/>
<feComposite in2="hardAlpha" operator="out"/>
<feColorMatrix type="matrix" values="0 0 0 0 0 0 0 0 0 0 0 0 0 0 0 0 0 0 1 0"/>
<feBlend mode="normal" in2="BackgroundImageFix" result="effect1_dropShadow_724_39"/>
<feBlend mode="normal" in="SourceGraphic" in2="effect1_dropShadow_724_39" result="shape"/>
</filter>
<linearGradient id="paint0_linear_724_39" x1="178.882" y1="115.989" x2="178.882" y2="263" gradientUnits="userSpaceOnUse">
<stop stop-color="white"/>
<stop offset="1" stop-color="#FF4040"/>
</linearGradient>
<linearGradient id="paint1_linear_724_39" x1="136.126" y1="129.873" x2="136.126" y2="162.542" gradientUnits="userSpaceOnUse">
<stop stop-color="white"/>
<stop offset="1" stop-color="#FF4040"/>
</linearGradient>
<linearGradient id="paint2_linear_724_39" x1="84.16" y1="3" x2="84.16" y2="150.011" gradientUnits="userSpaceOnUse">
<stop stop-color="white"/>
<stop offset="1" stop-color="#0057FF"/>
</linearGradient>
<linearGradient id="paint3_linear_724_39" x1="41.4046" y1="16.8846" x2="41.4046" y2="49.5538" gradientUnits="userSpaceOnUse">
<stop stop-color="white"/>
<stop offset="1" stop-color="#0057FF"/>
</linearGradient>
</defs>
</svg>
