<svg width="1920" height="403" viewBox="0 0 1920 403" fill="none" xmlns="http://www.w3.org/2000/svg">
<rect width="1920" height="400" fill="#202020"/>
<ellipse cx="9.09033" cy="5.49451" rx="5.09033" ry="5.49451" fill="#434343"/>
<ellipse cx="9.09033" cy="381.319" rx="5.09033" ry="5.49451" fill="#434343"/>
<ellipse cx="9.09033" cy="193.407" rx="5.09033" ry="5.49451" fill="#434343"/>
<ellipse cx="9.09033" cy="68.1319" rx="5.09033" ry="5.49451" fill="#434343"/>
<ellipse cx="9.09033" cy="256.044" rx="5.09033" ry="5.49451" fill="#434343"/>
<ellipse cx="9.09033" cy="130.769" rx="5.09033" ry="5.49451" fill="#434343"/>
<ellipse cx="9.09033" cy="318.681" rx="5.09033" ry="5.49451" fill="#434343"/>
<ellipse cx="1703.15" cy="5.49451" rx="5.09033" ry="5.49451" fill="#434343"/>
<ellipse cx="1703.15" cy="381.319" rx="5.09033" ry="5.49451" fill="#434343"/>
<ellipse cx="1703.15" cy="193.407" rx="5.09033" ry="5.49451" fill="#434343"/>
<ellipse cx="1703.15" cy="68.1319" rx="5.09033" ry="5.49451" fill="#434343"/>
<ellipse cx="1703.15" cy="256.044" rx="5.09033" ry="5.49451" fill="#434343"/>
<ellipse cx="1703.15" cy="130.769" rx="5.09033" ry="5.49451" fill="#434343"/>
<ellipse cx="1703.15" cy="318.681" rx="5.09033" ry="5.49451" fill="#434343"/>
<ellipse cx="1279.64" cy="5.49451" rx="5.09033" ry="5.49451" fill="#434343"/>
<ellipse cx="1279.64" cy="381.319" rx="5.09033" ry="5.49451" fill="#434343"/>
<ellipse cx="1279.64" cy="193.407" rx="5.09033" ry="5.49451" fill="#434343"/>
<ellipse cx="1279.64" cy="68.1319" rx="5.09033" ry="5.49451" fill="#434343"/>
<ellipse cx="1279.64" cy="256.044" rx="5.09033" ry="5.49451" fill="#434343"/>
<ellipse cx="1279.64" cy="130.769" rx="5.09033" ry="5.49451" fill="#434343"/>
<ellipse cx="1279.64" cy="318.681" rx="5.09033" ry="5.49451" fill="#434343"/>
<ellipse cx="62.0298" cy="5.49451" rx="5.09033" ry="5.49451" fill="#434343"/>
<ellipse cx="62.0298" cy="381.319" rx="5.09033" ry="5.49451" fill="#434343"/>
<ellipse cx="62.0298" cy="193.407" rx="5.09033" ry="5.49451" fill="#434343"/>
<ellipse cx="62.0298" cy="68.1319" rx="5.09033" ry="5.49451" fill="#434343"/>
<ellipse cx="62.0298" cy="256.044" rx="5.09033" ry="5.49451" fill="#434343"/>
<ellipse cx="62.0298" cy="130.769" rx="5.09033" ry="5.49451" fill="#434343"/>
<ellipse cx="62.0298" cy="318.681" rx="5.09033" ry="5.49451" fill="#434343"/>
<ellipse cx="1332.58" cy="5.49451" rx="5.09033" ry="5.49451" fill="#434343"/>
<ellipse cx="1332.58" cy="381.319" rx="5.09033" ry="5.49451" fill="#434343"/>
<ellipse cx="1332.58" cy="193.407" rx="5.09033" ry="5.49451" fill="#434343"/>
<ellipse cx="1332.58" cy="68.1319" rx="5.09033" ry="5.49451" fill="#434343"/>
<ellipse cx="1332.58" cy="256.044" rx="5.09033" ry="5.49451" fill="#434343"/>
<ellipse cx="1332.58" cy="130.769" rx="5.09033" ry="5.49451" fill="#434343"/>
<ellipse cx="1332.58" cy="318.681" rx="5.09033" ry="5.49451" fill="#434343"/>
<ellipse cx="114.969" cy="5.49451" rx="5.09033" ry="5.49451" fill="#434343"/>
<ellipse cx="114.969" cy="381.319" rx="5.09033" ry="5.49451" fill="#434343"/>
<ellipse cx="114.969" cy="193.407" rx="5.09033" ry="5.49451" fill="#434343"/>
<ellipse cx="114.969" cy="68.1319" rx="5.09033" ry="5.49451" fill="#434343"/>
<ellipse cx="114.969" cy="256.044" rx="5.09033" ry="5.49451" fill="#434343"/>
<ellipse cx="114.969" cy="130.769" rx="5.09033" ry="5.49451" fill="#434343"/>
<ellipse cx="114.969" cy="318.681" rx="5.09033" ry="5.49451" fill="#434343"/>
<ellipse cx="1385.52" cy="5.49451" rx="5.09033" ry="5.49451" fill="#434343"/>
<ellipse cx="1385.52" cy="381.319" rx="5.09033" ry="5.49451" fill="#434343"/>
<ellipse cx="1385.52" cy="193.407" rx="5.09033" ry="5.49451" fill="#434343"/>
<ellipse cx="1385.52" cy="68.1319" rx="5.09033" ry="5.49451" fill="#434343"/>
<ellipse cx="1385.52" cy="256.044" rx="5.09033" ry="5.49451" fill="#434343"/>
<ellipse cx="1385.52" cy="130.769" rx="5.09033" ry="5.49451" fill="#434343"/>
<ellipse cx="1385.52" cy="318.681" rx="5.09033" ry="5.49451" fill="#434343"/>
<ellipse cx="167.909" cy="5.49451" rx="5.09033" ry="5.49451" fill="#434343"/>
<ellipse cx="167.909" cy="381.319" rx="5.09033" ry="5.49451" fill="#434343"/>
<ellipse cx="167.909" cy="193.407" rx="5.09033" ry="5.49451" fill="#434343"/>
<ellipse cx="167.909" cy="68.1319" rx="5.09033" ry="5.49451" fill="#434343"/>
<ellipse cx="167.909" cy="256.044" rx="5.09033" ry="5.49451" fill="#434343"/>
<ellipse cx="167.909" cy="130.769" rx="5.09033" ry="5.49451" fill="#434343"/>
<ellipse cx="167.909" cy="318.681" rx="5.09033" ry="5.49451" fill="#434343"/>
<ellipse cx="1438.45" cy="5.49451" rx="5.09033" ry="5.49451" fill="#434343"/>
<ellipse cx="1438.45" cy="381.319" rx="5.09033" ry="5.49451" fill="#434343"/>
<ellipse cx="1438.45" cy="193.407" rx="5.09033" ry="5.49451" fill="#434343"/>
<ellipse cx="1438.45" cy="68.1319" rx="5.09033" ry="5.49451" fill="#434343"/>
<ellipse cx="1438.45" cy="256.044" rx="5.09033" ry="5.49451" fill="#434343"/>
<ellipse cx="1438.45" cy="130.769" rx="5.09033" ry="5.49451" fill="#434343"/>
<ellipse cx="1438.45" cy="318.681" rx="5.09033" ry="5.49451" fill="#434343"/>
<ellipse cx="220.848" cy="5.49451" rx="5.09033" ry="5.49451" fill="#434343"/>
<ellipse cx="220.848" cy="381.319" rx="5.09033" ry="5.49451" fill="#434343"/>
<ellipse cx="220.848" cy="193.407" rx="5.09033" ry="5.49451" fill="#434343"/>
<ellipse cx="220.848" cy="68.1319" rx="5.09033" ry="5.49451" fill="#434343"/>
<ellipse cx="220.848" cy="256.044" rx="5.09033" ry="5.49451" fill="#434343"/>
<ellipse cx="220.848" cy="130.769" rx="5.09033" ry="5.49451" fill="#434343"/>
<ellipse cx="220.848" cy="318.681" rx="5.09033" ry="5.49451" fill="#434343"/>
<ellipse cx="1491.39" cy="5.49451" rx="5.09033" ry="5.49451" fill="#434343"/>
<ellipse cx="1491.39" cy="381.319" rx="5.09033" ry="5.49451" fill="#434343"/>
<ellipse cx="1491.39" cy="193.407" rx="5.09033" ry="5.49451" fill="#434343"/>
<ellipse cx="1491.39" cy="68.1319" rx="5.09033" ry="5.49451" fill="#434343"/>
<ellipse cx="1491.39" cy="256.044" rx="5.09033" ry="5.49451" fill="#434343"/>
<ellipse cx="1491.39" cy="130.769" rx="5.09033" ry="5.49451" fill="#434343"/>
<ellipse cx="1491.39" cy="318.681" rx="5.09033" ry="5.49451" fill="#434343"/>
<ellipse cx="273.787" cy="5.49451" rx="5.09033" ry="5.49451" fill="#434343"/>
<ellipse cx="273.787" cy="381.319" rx="5.09033" ry="5.49451" fill="#434343"/>
<ellipse cx="273.787" cy="193.407" rx="5.09033" ry="5.49451" fill="#434343"/>
<ellipse cx="273.787" cy="68.1319" rx="5.09033" ry="5.49451" fill="#434343"/>
<ellipse cx="273.787" cy="256.044" rx="5.09033" ry="5.49451" fill="#434343"/>
<ellipse cx="273.787" cy="130.769" rx="5.09033" ry="5.49451" fill="#434343"/>
<ellipse cx="273.787" cy="318.681" rx="5.09033" ry="5.49451" fill="#434343"/>
<ellipse cx="1544.33" cy="5.49451" rx="5.09033" ry="5.49451" fill="#434343"/>
<ellipse cx="1544.33" cy="381.319" rx="5.09033" ry="5.49451" fill="#434343"/>
<ellipse cx="1544.33" cy="193.407" rx="5.09033" ry="5.49451" fill="#434343"/>
<ellipse cx="1544.33" cy="68.1319" rx="5.09033" ry="5.49451" fill="#434343"/>
<ellipse cx="1544.33" cy="256.044" rx="5.09033" ry="5.49451" fill="#434343"/>
<ellipse cx="1544.33" cy="130.769" rx="5.09033" ry="5.49451" fill="#434343"/>
<ellipse cx="1544.33" cy="318.681" rx="5.09033" ry="5.49451" fill="#434343"/>
<ellipse cx="326.727" cy="5.49451" rx="5.09033" ry="5.49451" fill="#434343"/>
<ellipse cx="326.727" cy="381.319" rx="5.09033" ry="5.49451" fill="#434343"/>
<ellipse cx="326.727" cy="193.407" rx="5.09033" ry="5.49451" fill="#434343"/>
<ellipse cx="326.727" cy="68.1319" rx="5.09033" ry="5.49451" fill="#434343"/>
<ellipse cx="326.727" cy="256.044" rx="5.09033" ry="5.49451" fill="#434343"/>
<ellipse cx="326.727" cy="130.769" rx="5.09033" ry="5.49451" fill="#434343"/>
<ellipse cx="326.727" cy="318.681" rx="5.09033" ry="5.49451" fill="#434343"/>
<ellipse cx="1597.27" cy="5.49451" rx="5.09033" ry="5.49451" fill="#434343"/>
<ellipse cx="1597.27" cy="381.319" rx="5.09033" ry="5.49451" fill="#434343"/>
<ellipse cx="1597.27" cy="193.407" rx="5.09033" ry="5.49451" fill="#434343"/>
<ellipse cx="1597.27" cy="68.1319" rx="5.09033" ry="5.49451" fill="#434343"/>
<ellipse cx="1597.27" cy="256.044" rx="5.09033" ry="5.49451" fill="#434343"/>
<ellipse cx="1597.27" cy="130.769" rx="5.09033" ry="5.49451" fill="#434343"/>
<ellipse cx="1597.27" cy="318.681" rx="5.09033" ry="5.49451" fill="#434343"/>
<ellipse cx="379.666" cy="5.49451" rx="5.09033" ry="5.49451" fill="#434343"/>
<ellipse cx="379.666" cy="381.319" rx="5.09033" ry="5.49451" fill="#434343"/>
<ellipse cx="379.666" cy="193.407" rx="5.09033" ry="5.49451" fill="#434343"/>
<ellipse cx="379.666" cy="68.1319" rx="5.09033" ry="5.49451" fill="#434343"/>
<ellipse cx="379.666" cy="256.044" rx="5.09033" ry="5.49451" fill="#434343"/>
<ellipse cx="379.666" cy="130.769" rx="5.09033" ry="5.49451" fill="#434343"/>
<ellipse cx="379.666" cy="318.681" rx="5.09033" ry="5.49451" fill="#434343"/>
<ellipse cx="1650.21" cy="5.49451" rx="5.09033" ry="5.49451" fill="#434343"/>
<ellipse cx="1650.21" cy="381.319" rx="5.09033" ry="5.49451" fill="#434343"/>
<ellipse cx="1650.21" cy="193.407" rx="5.09033" ry="5.49451" fill="#434343"/>
<ellipse cx="1650.21" cy="68.1319" rx="5.09033" ry="5.49451" fill="#434343"/>
<ellipse cx="1650.21" cy="256.044" rx="5.09033" ry="5.49451" fill="#434343"/>
<ellipse cx="1650.21" cy="130.769" rx="5.09033" ry="5.49451" fill="#434343"/>
<ellipse cx="1650.21" cy="318.681" rx="5.09033" ry="5.49451" fill="#434343"/>
<ellipse cx="432.606" cy="5.49451" rx="5.09033" ry="5.49451" fill="#434343"/>
<ellipse cx="432.606" cy="381.319" rx="5.09033" ry="5.49451" fill="#434343"/>
<ellipse cx="432.606" cy="193.407" rx="5.09033" ry="5.49451" fill="#434343"/>
<ellipse cx="432.606" cy="68.1319" rx="5.09033" ry="5.49451" fill="#434343"/>
<ellipse cx="432.606" cy="256.044" rx="5.09033" ry="5.49451" fill="#434343"/>
<ellipse cx="432.606" cy="130.769" rx="5.09033" ry="5.49451" fill="#434343"/>
<ellipse cx="432.606" cy="318.681" rx="5.09033" ry="5.49451" fill="#434343"/>
<ellipse cx="485.545" cy="5.49451" rx="5.09033" ry="5.49451" fill="#434343"/>
<ellipse cx="485.545" cy="381.319" rx="5.09033" ry="5.49451" fill="#434343"/>
<ellipse cx="485.545" cy="193.407" rx="5.09033" ry="5.49451" fill="#434343"/>
<ellipse cx="485.545" cy="68.1319" rx="5.09033" ry="5.49451" fill="#434343"/>
<ellipse cx="485.545" cy="256.044" rx="5.09033" ry="5.49451" fill="#434343"/>
<ellipse cx="485.545" cy="130.769" rx="5.09033" ry="5.49451" fill="#434343"/>
<ellipse cx="485.545" cy="318.681" rx="5.09033" ry="5.49451" fill="#434343"/>
<ellipse cx="1756.09" cy="5.49451" rx="5.09033" ry="5.49451" fill="#434343"/>
<ellipse cx="1756.09" cy="381.319" rx="5.09033" ry="5.49451" fill="#434343"/>
<ellipse cx="1756.09" cy="193.407" rx="5.09033" ry="5.49451" fill="#434343"/>
<ellipse cx="1756.09" cy="68.1319" rx="5.09033" ry="5.49451" fill="#434343"/>
<ellipse cx="1756.09" cy="256.044" rx="5.09033" ry="5.49451" fill="#434343"/>
<ellipse cx="1756.09" cy="130.769" rx="5.09033" ry="5.49451" fill="#434343"/>
<ellipse cx="1756.09" cy="318.681" rx="5.09033" ry="5.49451" fill="#434343"/>
<ellipse cx="538.485" cy="5.49451" rx="5.09033" ry="5.49451" fill="#434343"/>
<ellipse cx="538.485" cy="381.319" rx="5.09033" ry="5.49451" fill="#434343"/>
<ellipse cx="538.485" cy="193.407" rx="5.09033" ry="5.49451" fill="#434343"/>
<ellipse cx="538.485" cy="68.1319" rx="5.09033" ry="5.49451" fill="#434343"/>
<ellipse cx="538.485" cy="256.044" rx="5.09033" ry="5.49451" fill="#434343"/>
<ellipse cx="538.485" cy="130.769" rx="5.09033" ry="5.49451" fill="#434343"/>
<ellipse cx="538.485" cy="318.681" rx="5.09033" ry="5.49451" fill="#434343"/>
<ellipse cx="1809.03" cy="5.49451" rx="5.09033" ry="5.49451" fill="#434343"/>
<ellipse cx="1809.03" cy="381.319" rx="5.09033" ry="5.49451" fill="#434343"/>
<ellipse cx="1809.03" cy="193.407" rx="5.09033" ry="5.49451" fill="#434343"/>
<ellipse cx="1809.03" cy="68.1319" rx="5.09033" ry="5.49451" fill="#434343"/>
<ellipse cx="1809.03" cy="256.044" rx="5.09033" ry="5.49451" fill="#434343"/>
<ellipse cx="1809.03" cy="130.769" rx="5.09033" ry="5.49451" fill="#434343"/>
<ellipse cx="1809.03" cy="318.681" rx="5.09033" ry="5.49451" fill="#434343"/>
<ellipse cx="591.424" cy="5.49451" rx="5.09033" ry="5.49451" fill="#434343"/>
<ellipse cx="591.424" cy="381.319" rx="5.09033" ry="5.49451" fill="#434343"/>
<ellipse cx="591.424" cy="193.407" rx="5.09033" ry="5.49451" fill="#434343"/>
<ellipse cx="591.424" cy="68.1319" rx="5.09033" ry="5.49451" fill="#434343"/>
<ellipse cx="591.424" cy="256.044" rx="5.09033" ry="5.49451" fill="#434343"/>
<ellipse cx="591.424" cy="130.769" rx="5.09033" ry="5.49451" fill="#434343"/>
<ellipse cx="591.424" cy="318.681" rx="5.09033" ry="5.49451" fill="#434343"/>
<ellipse cx="1861.97" cy="5.49451" rx="5.09033" ry="5.49451" fill="#434343"/>
<ellipse cx="1861.97" cy="381.319" rx="5.09033" ry="5.49451" fill="#434343"/>
<ellipse cx="1861.97" cy="193.407" rx="5.09033" ry="5.49451" fill="#434343"/>
<ellipse cx="1861.97" cy="68.1319" rx="5.09033" ry="5.49451" fill="#434343"/>
<ellipse cx="1861.97" cy="256.044" rx="5.09033" ry="5.49451" fill="#434343"/>
<ellipse cx="1861.97" cy="130.769" rx="5.09033" ry="5.49451" fill="#434343"/>
<ellipse cx="1861.97" cy="318.681" rx="5.09033" ry="5.49451" fill="#434343"/>
<ellipse cx="644.364" cy="5.49451" rx="5.09033" ry="5.49451" fill="#434343"/>
<ellipse cx="644.364" cy="381.319" rx="5.09033" ry="5.49451" fill="#434343"/>
<ellipse cx="644.364" cy="193.407" rx="5.09033" ry="5.49451" fill="#434343"/>
<ellipse cx="644.364" cy="68.1319" rx="5.09033" ry="5.49451" fill="#434343"/>
<ellipse cx="644.364" cy="256.044" rx="5.09033" ry="5.49451" fill="#434343"/>
<ellipse cx="644.364" cy="130.769" rx="5.09033" ry="5.49451" fill="#434343"/>
<ellipse cx="644.364" cy="318.681" rx="5.09033" ry="5.49451" fill="#434343"/>
<ellipse cx="1914.91" cy="5.49451" rx="5.09033" ry="5.49451" fill="#434343"/>
<ellipse cx="1914.91" cy="381.319" rx="5.09033" ry="5.49451" fill="#434343"/>
<ellipse cx="1914.91" cy="193.407" rx="5.09033" ry="5.49451" fill="#434343"/>
<ellipse cx="1914.91" cy="68.1319" rx="5.09033" ry="5.49451" fill="#434343"/>
<ellipse cx="1914.91" cy="256.044" rx="5.09033" ry="5.49451" fill="#434343"/>
<ellipse cx="1914.91" cy="130.769" rx="5.09033" ry="5.49451" fill="#434343"/>
<ellipse cx="1914.91" cy="318.681" rx="5.09033" ry="5.49451" fill="#434343"/>
<ellipse cx="697.303" cy="5.49451" rx="5.09033" ry="5.49451" fill="#434343"/>
<ellipse cx="697.303" cy="381.319" rx="5.09033" ry="5.49451" fill="#434343"/>
<ellipse cx="697.303" cy="193.407" rx="5.09033" ry="5.49451" fill="#434343"/>
<ellipse cx="697.303" cy="68.1319" rx="5.09033" ry="5.49451" fill="#434343"/>
<ellipse cx="697.303" cy="256.044" rx="5.09033" ry="5.49451" fill="#434343"/>
<ellipse cx="697.303" cy="130.769" rx="5.09033" ry="5.49451" fill="#434343"/>
<ellipse cx="697.303" cy="318.681" rx="5.09033" ry="5.49451" fill="#434343"/>
<ellipse cx="750.242" cy="5.49451" rx="5.09033" ry="5.49451" fill="#434343"/>
<ellipse cx="750.242" cy="381.319" rx="5.09033" ry="5.49451" fill="#434343"/>
<ellipse cx="750.242" cy="193.407" rx="5.09033" ry="5.49451" fill="#434343"/>
<ellipse cx="750.242" cy="68.1319" rx="5.09033" ry="5.49451" fill="#434343"/>
<ellipse cx="750.242" cy="256.044" rx="5.09033" ry="5.49451" fill="#434343"/>
<ellipse cx="750.242" cy="130.769" rx="5.09033" ry="5.49451" fill="#434343"/>
<ellipse cx="803.182" cy="5.49451" rx="5.09033" ry="5.49451" fill="#434343"/>
<ellipse cx="803.182" cy="381.319" rx="5.09033" ry="5.49451" fill="#434343"/>
<ellipse cx="803.182" cy="193.407" rx="5.09033" ry="5.49451" fill="#434343"/>
<ellipse cx="803.182" cy="68.1319" rx="5.09033" ry="5.49451" fill="#434343"/>
<ellipse cx="803.182" cy="256.044" rx="5.09033" ry="5.49451" fill="#434343"/>
<ellipse cx="803.182" cy="130.769" rx="5.09033" ry="5.49451" fill="#434343"/>
<ellipse cx="856.121" cy="5.49451" rx="5.09033" ry="5.49451" fill="#434343"/>
<ellipse cx="856.121" cy="381.319" rx="5.09033" ry="5.49451" fill="#434343"/>
<ellipse cx="856.121" cy="193.407" rx="5.09033" ry="5.49451" fill="#434343"/>
<ellipse cx="856.121" cy="68.1319" rx="5.09033" ry="5.49451" fill="#434343"/>
<ellipse cx="856.121" cy="256.044" rx="5.09033" ry="5.49451" fill="#434343"/>
<ellipse cx="856.121" cy="130.769" rx="5.09033" ry="5.49451" fill="#434343"/>
<ellipse cx="909.061" cy="5.49451" rx="5.09033" ry="5.49451" fill="#434343"/>
<ellipse cx="909.061" cy="381.319" rx="5.09033" ry="5.49451" fill="#434343"/>
<ellipse cx="909.061" cy="193.407" rx="5.09033" ry="5.49451" fill="#434343"/>
<ellipse cx="909.061" cy="68.1319" rx="5.09033" ry="5.49451" fill="#434343"/>
<ellipse cx="909.061" cy="256.044" rx="5.09033" ry="5.49451" fill="#434343"/>
<ellipse cx="909.061" cy="130.769" rx="5.09033" ry="5.49451" fill="#434343"/>
<ellipse cx="962" cy="5.49451" rx="5.09033" ry="5.49451" fill="#434343"/>
<ellipse cx="962" cy="381.319" rx="5.09033" ry="5.49451" fill="#434343"/>
<ellipse cx="962" cy="193.407" rx="5.09033" ry="5.49451" fill="#434343"/>
<ellipse cx="962" cy="68.1319" rx="5.09033" ry="5.49451" fill="#434343"/>
<ellipse cx="962" cy="256.044" rx="5.09033" ry="5.49451" fill="#434343"/>
<ellipse cx="962" cy="130.769" rx="5.09033" ry="5.49451" fill="#434343"/>
<ellipse cx="1014.94" cy="5.49451" rx="5.09033" ry="5.49451" fill="#434343"/>
<ellipse cx="1014.94" cy="381.319" rx="5.09033" ry="5.49451" fill="#434343"/>
<ellipse cx="1014.94" cy="193.407" rx="5.09033" ry="5.49451" fill="#434343"/>
<ellipse cx="1014.94" cy="68.1319" rx="5.09033" ry="5.49451" fill="#434343"/>
<ellipse cx="1014.94" cy="256.044" rx="5.09033" ry="5.49451" fill="#434343"/>
<ellipse cx="1014.94" cy="130.769" rx="5.09033" ry="5.49451" fill="#434343"/>
<ellipse cx="1067.88" cy="5.49451" rx="5.09033" ry="5.49451" fill="#434343"/>
<ellipse cx="1067.88" cy="381.319" rx="5.09033" ry="5.49451" fill="#434343"/>
<ellipse cx="1067.88" cy="193.407" rx="5.09033" ry="5.49451" fill="#434343"/>
<ellipse cx="1067.88" cy="68.1319" rx="5.09033" ry="5.49451" fill="#434343"/>
<ellipse cx="1067.88" cy="256.044" rx="5.09033" ry="5.49451" fill="#434343"/>
<ellipse cx="1067.88" cy="130.769" rx="5.09033" ry="5.49451" fill="#434343"/>
<ellipse cx="1120.82" cy="5.49451" rx="5.09033" ry="5.49451" fill="#434343"/>
<ellipse cx="1120.82" cy="381.319" rx="5.09033" ry="5.49451" fill="#434343"/>
<ellipse cx="1120.82" cy="193.407" rx="5.09033" ry="5.49451" fill="#434343"/>
<ellipse cx="1120.82" cy="68.1319" rx="5.09033" ry="5.49451" fill="#434343"/>
<ellipse cx="1120.82" cy="256.044" rx="5.09033" ry="5.49451" fill="#434343"/>
<ellipse cx="1120.82" cy="130.769" rx="5.09033" ry="5.49451" fill="#434343"/>
<ellipse cx="750.242" cy="318.681" rx="5.09033" ry="5.49451" fill="#434343"/>
<ellipse cx="803.182" cy="318.681" rx="5.09033" ry="5.49451" fill="#434343"/>
<ellipse cx="856.121" cy="318.681" rx="5.09033" ry="5.49451" fill="#434343"/>
<ellipse cx="909.061" cy="318.681" rx="5.09033" ry="5.49451" fill="#434343"/>
<ellipse cx="962" cy="318.681" rx="5.09033" ry="5.49451" fill="#434343"/>
<ellipse cx="1014.94" cy="318.681" rx="5.09033" ry="5.49451" fill="#434343"/>
<ellipse cx="1067.88" cy="318.681" rx="5.09033" ry="5.49451" fill="#434343"/>
<ellipse cx="1120.82" cy="318.681" rx="5.09033" ry="5.49451" fill="#434343"/>
<ellipse cx="1173.76" cy="5.49451" rx="5.09033" ry="5.49451" fill="#434343"/>
<ellipse cx="1173.76" cy="381.319" rx="5.09033" ry="5.49451" fill="#434343"/>
<ellipse cx="1173.76" cy="193.407" rx="5.09033" ry="5.49451" fill="#434343"/>
<ellipse cx="1173.76" cy="68.1319" rx="5.09033" ry="5.49451" fill="#434343"/>
<ellipse cx="1173.76" cy="256.044" rx="5.09033" ry="5.49451" fill="#434343"/>
<ellipse cx="1173.76" cy="130.769" rx="5.09033" ry="5.49451" fill="#434343"/>
<ellipse cx="1173.76" cy="318.681" rx="5.09033" ry="5.49451" fill="#434343"/>
<ellipse cx="1226.7" cy="5.49451" rx="5.09033" ry="5.49451" fill="#434343"/>
<ellipse cx="1226.7" cy="381.319" rx="5.09033" ry="5.49451" fill="#434343"/>
<ellipse cx="1226.7" cy="193.407" rx="5.09033" ry="5.49451" fill="#434343"/>
<ellipse cx="1226.7" cy="68.1319" rx="5.09033" ry="5.49451" fill="#434343"/>
<ellipse cx="1226.7" cy="256.044" rx="5.09033" ry="5.49451" fill="#434343"/>
<ellipse cx="1226.7" cy="130.769" rx="5.09033" ry="5.49451" fill="#434343"/>
<ellipse cx="1226.7" cy="318.681" rx="5.09033" ry="5.49451" fill="#434343"/>
<rect x="1461.92" y="53.3525" width="148.5" height="133.218" rx="4.25" transform="rotate(-15 1461.92 53.3525)" fill="url(#paint0_linear_413_1385)" stroke="black" stroke-width="1.5" stroke-linejoin="bevel"/>
<path d="M1488.82 150.848C1488.82 150.848 1511.52 113.765 1515 112.35C1518.47 110.936 1550.27 128.081 1550.27 128.081" stroke="black" stroke-width="1.5" stroke-linejoin="bevel"/>
<path d="M1529.7 171.561C1529.7 171.561 1576.46 72.2486 1581.99 71.1543C1587.52 70.0601 1625.7 96.6349 1625.7 96.6349" stroke="black" stroke-width="1.5" stroke-linejoin="bevel"/>
<path d="M1515.98 66.7588C1518.01 74.3426 1513.5 82.1439 1505.9 84.1812C1498.29 86.2185 1490.48 81.7189 1488.45 74.1352C1486.42 66.5514 1490.93 58.7501 1498.54 56.7128C1506.14 54.6755 1513.95 59.175 1515.98 66.7588Z" fill="url(#paint1_linear_413_1385)" stroke="black" stroke-width="1.5" stroke-linejoin="bevel"/>
<g filter="url(#filter0_d_413_1385)">
<rect x="1687.41" y="251.919" width="92.6318" height="83.042" rx="4.25" transform="rotate(15 1687.41 251.919)" fill="url(#paint2_linear_413_1385)" stroke="black" stroke-width="1.5"/>
<path d="M1670.58 312.905C1670.58 312.905 1695.67 297.551 1698.02 297.839C1700.37 298.126 1712.17 319.814 1712.17 319.814" stroke="black" stroke-width="1.5"/>
<path d="M1685.85 337.924C1685.85 337.924 1743.54 297.787 1746.88 298.927C1750.23 300.068 1763.29 327.53 1763.29 327.53" stroke="black" stroke-width="1.5"/>
<path d="M1712.12 275.753C1710.88 280.363 1706.14 283.099 1701.51 281.86C1696.89 280.621 1694.15 275.879 1695.38 271.269C1696.62 266.659 1701.36 263.923 1705.99 265.162C1710.61 266.401 1713.35 271.144 1712.12 275.753Z" fill="url(#paint3_linear_413_1385)" stroke="black" stroke-width="1.5"/>
</g>
<g filter="url(#filter1_d_413_1385)">
<rect x="157.398" y="11.9179" width="148.5" height="133.218" rx="4.25" transform="rotate(15 157.398 11.9179)" fill="url(#paint4_linear_413_1385)" stroke="black" stroke-width="1.5"/>
<path d="M130.898 109.646C130.898 109.646 170.873 85.1796 174.618 85.6374C178.362 86.0952 197.172 120.655 197.172 120.655" stroke="black" stroke-width="1.5"/>
<path d="M155.225 149.514C155.225 149.514 247.148 85.5542 252.484 87.3717C257.821 89.1892 278.618 132.95 278.618 132.95" stroke="black" stroke-width="1.5"/>
<path d="M197.514 50.5592C195.482 58.143 187.673 62.6426 180.069 60.6053C172.466 58.568 167.953 50.7667 169.985 43.1829C172.017 35.5991 179.826 31.0995 187.43 33.1368C195.033 35.1741 199.546 42.9754 197.514 50.5592Z" fill="url(#paint5_linear_413_1385)" stroke="black" stroke-width="1.5"/>
</g>
<g filter="url(#filter2_d_413_1385)">
<rect x="179.282" y="205.449" width="146" height="130.718" rx="3" transform="rotate(15 179.282 205.449)" stroke="black" stroke-width="4"/>
<path d="M151.898 301.647C151.898 301.647 191.873 277.18 195.618 277.638C199.362 278.096 218.172 312.656 218.172 312.656" stroke="black" stroke-width="4"/>
<path d="M176.225 341.515C176.225 341.515 268.148 277.555 273.484 279.372C278.821 281.19 299.619 324.951 299.619 324.951" stroke="black" stroke-width="4"/>
<path d="M217.306 242.236C215.454 249.151 208.332 253.258 201.393 251.399C194.454 249.539 190.339 242.422 192.192 235.507C194.045 228.592 201.167 224.486 208.106 226.345C215.045 228.204 219.159 235.322 217.306 242.236Z" stroke="black" stroke-width="4"/>
</g>
<g filter="url(#filter3_d_413_1385)">
<rect x="997.282" y="230.449" width="146" height="130.718" rx="3" transform="rotate(15 997.282 230.449)" stroke="black" stroke-width="4"/>
<path d="M969.898 326.647C969.898 326.647 1009.87 302.18 1013.62 302.638C1017.36 303.096 1036.17 337.656 1036.17 337.656" stroke="black" stroke-width="4"/>
<path d="M994.225 366.515C994.225 366.515 1086.15 302.555 1091.48 304.372C1096.82 306.19 1117.62 349.951 1117.62 349.951" stroke="black" stroke-width="4"/>
<path d="M1035.31 267.236C1033.45 274.151 1026.33 278.258 1019.39 276.399C1012.45 274.539 1008.34 267.422 1010.19 260.507C1012.05 253.592 1019.17 249.486 1026.11 251.345C1033.04 253.204 1037.16 260.322 1035.31 267.236Z" stroke="black" stroke-width="4"/>
</g>
<g filter="url(#filter4_d_413_1385)">
<rect x="434.449" y="42.2371" width="146" height="130.718" rx="3" transform="rotate(-15 434.449 42.2371)" stroke="black" stroke-width="4"/>
<path d="M458.833 139.239C458.833 139.239 481.22 98.0619 484.691 96.5863C488.162 95.1108 521.733 115.635 521.733 115.635" stroke="black" stroke-width="4"/>
<path d="M499.835 161.601C499.835 161.601 547.463 60.2493 552.993 59.155C558.523 58.0608 598.415 85.5602 598.415 85.5602" stroke="black" stroke-width="4"/>
<path d="M485.773 55.0832C487.626 61.9978 483.512 69.1154 476.573 70.9747C469.634 72.8339 462.512 68.7271 460.659 61.8125C458.806 54.8979 462.921 47.7803 469.86 45.921C476.798 44.0618 483.92 48.1686 485.773 55.0832Z" stroke="black" stroke-width="4"/>
</g>
<g filter="url(#filter5_d_413_1385)">
<rect x="1174.28" y="37.4494" width="146" height="130.718" rx="3" transform="rotate(15 1174.28 37.4494)" stroke="black" stroke-width="4"/>
<path d="M1146.9 133.647C1146.9 133.647 1186.87 109.18 1190.62 109.638C1194.36 110.096 1213.17 144.656 1213.17 144.656" stroke="black" stroke-width="4"/>
<path d="M1171.23 173.515C1171.23 173.515 1263.15 109.555 1268.48 111.372C1273.82 113.19 1294.62 156.951 1294.62 156.951" stroke="black" stroke-width="4"/>
<path d="M1212.31 74.2362C1210.45 81.1508 1203.33 85.2577 1196.39 83.3984C1189.45 81.5391 1185.34 74.4215 1187.19 67.5069C1189.05 60.5924 1196.17 56.4855 1203.11 58.3448C1210.04 60.204 1214.16 67.3217 1212.31 74.2362Z" stroke="black" stroke-width="4"/>
</g>
<g filter="url(#filter6_d_413_1385)">
<rect x="541.449" y="201.237" width="146" height="130.718" rx="3" transform="rotate(-15 541.449 201.237)" stroke="black" stroke-width="4"/>
<path d="M565.833 298.239C565.833 298.239 588.22 257.062 591.691 255.586C595.162 254.111 628.733 274.635 628.733 274.635" stroke="black" stroke-width="4"/>
<path d="M606.835 320.601C606.835 320.601 654.463 219.249 659.993 218.155C665.523 217.061 705.415 244.56 705.415 244.56" stroke="black" stroke-width="4"/>
<path d="M592.773 214.083C594.626 220.998 590.512 228.115 583.573 229.975C576.634 231.834 569.512 227.727 567.659 220.812C565.806 213.898 569.921 206.78 576.86 204.921C583.798 203.062 590.92 207.169 592.773 214.083Z" stroke="black" stroke-width="4"/>
</g>
<g filter="url(#filter7_d_413_1385)">
<rect x="1384.28" y="216.449" width="146" height="130.718" rx="3" transform="rotate(15 1384.28 216.449)" stroke="black" stroke-width="4"/>
<path d="M1356.9 312.647C1356.9 312.647 1396.87 288.18 1400.62 288.638C1404.36 289.096 1423.17 323.656 1423.17 323.656" stroke="black" stroke-width="4"/>
<path d="M1381.23 352.515C1381.23 352.515 1473.15 288.555 1478.48 290.372C1483.82 292.19 1504.62 335.951 1504.62 335.951" stroke="black" stroke-width="4"/>
<path d="M1422.31 253.236C1420.45 260.151 1413.33 264.258 1406.39 262.399C1399.45 260.539 1395.34 253.422 1397.19 246.507C1399.05 239.592 1406.17 235.486 1413.11 237.345C1420.04 239.204 1424.16 246.322 1422.31 253.236Z" stroke="black" stroke-width="4"/>
</g>
<g filter="url(#filter8_d_413_1385)">
<rect x="834.282" y="7.44949" width="146" height="130.718" rx="3" transform="rotate(15 834.282 7.44949)" stroke="black" stroke-width="4"/>
<path d="M806.898 103.647C806.898 103.647 846.874 79.1803 850.618 79.6381C854.362 80.0959 873.173 114.656 873.173 114.656" stroke="black" stroke-width="4"/>
<path d="M831.225 143.515C831.225 143.515 923.148 79.5549 928.484 81.3724C933.821 83.1899 954.619 126.951 954.619 126.951" stroke="black" stroke-width="4"/>
<path d="M872.306 44.2364C870.454 51.1509 863.332 55.2578 856.393 53.3985C849.454 51.5393 845.34 44.4216 847.192 37.5071C849.045 30.5925 856.167 26.4856 863.106 28.3449C870.045 30.2042 874.159 37.3218 872.306 44.2364Z" stroke="black" stroke-width="4"/>
</g>
<defs>
<filter id="filter0_d_413_1385" x="1663.12" y="249.122" width="120.56" height="113.779" filterUnits="userSpaceOnUse" color-interpolation-filters="sRGB">
<feFlood flood-opacity="0" result="BackgroundImageFix"/>
<feColorMatrix in="SourceAlpha" type="matrix" values="0 0 0 0 0 0 0 0 0 0 0 0 0 0 0 0 0 0 127 0" result="hardAlpha"/>
<feOffset dx="2" dy="2"/>
<feGaussianBlur stdDeviation="2.5"/>
<feComposite in2="hardAlpha" operator="out"/>
<feColorMatrix type="matrix" values="0 0 0 0 0 0 0 0 0 0 0 0 0 0 0 0 0 0 1 0"/>
<feBlend mode="normal" in2="BackgroundImageFix" result="effect1_dropShadow_413_1385"/>
<feBlend mode="normal" in="SourceGraphic" in2="effect1_dropShadow_413_1385" result="shape"/>
</filter>
<filter id="filter1_d_413_1385" x="120.123" y="9.12183" width="187.511" height="176.706" filterUnits="userSpaceOnUse" color-interpolation-filters="sRGB">
<feFlood flood-opacity="0" result="BackgroundImageFix"/>
<feColorMatrix in="SourceAlpha" type="matrix" values="0 0 0 0 0 0 0 0 0 0 0 0 0 0 0 0 0 0 127 0" result="hardAlpha"/>
<feOffset dx="2" dy="2"/>
<feGaussianBlur stdDeviation="2.5"/>
<feComposite in2="hardAlpha" operator="out"/>
<feColorMatrix type="matrix" values="0 0 0 0 0 0 0 0 0 0 0 0 0 0 0 0 0 0 1 0"/>
<feBlend mode="normal" in2="BackgroundImageFix" result="effect1_dropShadow_413_1385"/>
<feBlend mode="normal" in="SourceGraphic" in2="effect1_dropShadow_413_1385" result="shape"/>
</filter>
<filter id="filter2_d_413_1385" x="141.123" y="201.122" width="187.511" height="176.706" filterUnits="userSpaceOnUse" color-interpolation-filters="sRGB">
<feFlood flood-opacity="0" result="BackgroundImageFix"/>
<feColorMatrix in="SourceAlpha" type="matrix" values="0 0 0 0 0 0 0 0 0 0 0 0 0 0 0 0 0 0 127 0" result="hardAlpha"/>
<feOffset dx="2" dy="2"/>
<feGaussianBlur stdDeviation="2.5"/>
<feComposite in2="hardAlpha" operator="out"/>
<feColorMatrix type="matrix" values="0 0 0 0 0 0 0 0 0 0 0 0 0 0 0 0 0 0 1 0"/>
<feBlend mode="normal" in2="BackgroundImageFix" result="effect1_dropShadow_413_1385"/>
<feBlend mode="normal" in="SourceGraphic" in2="effect1_dropShadow_413_1385" result="shape"/>
</filter>
<filter id="filter3_d_413_1385" x="959.122" y="226.122" width="187.512" height="176.706" filterUnits="userSpaceOnUse" color-interpolation-filters="sRGB">
<feFlood flood-opacity="0" result="BackgroundImageFix"/>
<feColorMatrix in="SourceAlpha" type="matrix" values="0 0 0 0 0 0 0 0 0 0 0 0 0 0 0 0 0 0 127 0" result="hardAlpha"/>
<feOffset dx="2" dy="2"/>
<feGaussianBlur stdDeviation="2.5"/>
<feComposite in2="hardAlpha" operator="out"/>
<feColorMatrix type="matrix" values="0 0 0 0 0 0 0 0 0 0 0 0 0 0 0 0 0 0 1 0"/>
<feBlend mode="normal" in2="BackgroundImageFix" result="effect1_dropShadow_413_1385"/>
<feBlend mode="normal" in="SourceGraphic" in2="effect1_dropShadow_413_1385" result="shape"/>
</filter>
<filter id="filter4_d_413_1385" x="430.123" y="0.122498" width="187.511" height="176.706" filterUnits="userSpaceOnUse" color-interpolation-filters="sRGB">
<feFlood flood-opacity="0" result="BackgroundImageFix"/>
<feColorMatrix in="SourceAlpha" type="matrix" values="0 0 0 0 0 0 0 0 0 0 0 0 0 0 0 0 0 0 127 0" result="hardAlpha"/>
<feOffset dx="2" dy="2"/>
<feGaussianBlur stdDeviation="2.5"/>
<feComposite in2="hardAlpha" operator="out"/>
<feColorMatrix type="matrix" values="0 0 0 0 0 0 0 0 0 0 0 0 0 0 0 0 0 0 1 0"/>
<feBlend mode="normal" in2="BackgroundImageFix" result="effect1_dropShadow_413_1385"/>
<feBlend mode="normal" in="SourceGraphic" in2="effect1_dropShadow_413_1385" result="shape"/>
</filter>
<filter id="filter5_d_413_1385" x="1136.12" y="33.1224" width="187.512" height="176.706" filterUnits="userSpaceOnUse" color-interpolation-filters="sRGB">
<feFlood flood-opacity="0" result="BackgroundImageFix"/>
<feColorMatrix in="SourceAlpha" type="matrix" values="0 0 0 0 0 0 0 0 0 0 0 0 0 0 0 0 0 0 127 0" result="hardAlpha"/>
<feOffset dx="2" dy="2"/>
<feGaussianBlur stdDeviation="2.5"/>
<feComposite in2="hardAlpha" operator="out"/>
<feColorMatrix type="matrix" values="0 0 0 0 0 0 0 0 0 0 0 0 0 0 0 0 0 0 1 0"/>
<feBlend mode="normal" in2="BackgroundImageFix" result="effect1_dropShadow_413_1385"/>
<feBlend mode="normal" in="SourceGraphic" in2="effect1_dropShadow_413_1385" result="shape"/>
</filter>
<filter id="filter6_d_413_1385" x="537.123" y="159.122" width="187.511" height="176.706" filterUnits="userSpaceOnUse" color-interpolation-filters="sRGB">
<feFlood flood-opacity="0" result="BackgroundImageFix"/>
<feColorMatrix in="SourceAlpha" type="matrix" values="0 0 0 0 0 0 0 0 0 0 0 0 0 0 0 0 0 0 127 0" result="hardAlpha"/>
<feOffset dx="2" dy="2"/>
<feGaussianBlur stdDeviation="2.5"/>
<feComposite in2="hardAlpha" operator="out"/>
<feColorMatrix type="matrix" values="0 0 0 0 0 0 0 0 0 0 0 0 0 0 0 0 0 0 1 0"/>
<feBlend mode="normal" in2="BackgroundImageFix" result="effect1_dropShadow_413_1385"/>
<feBlend mode="normal" in="SourceGraphic" in2="effect1_dropShadow_413_1385" result="shape"/>
</filter>
<filter id="filter7_d_413_1385" x="1346.12" y="212.122" width="187.512" height="176.706" filterUnits="userSpaceOnUse" color-interpolation-filters="sRGB">
<feFlood flood-opacity="0" result="BackgroundImageFix"/>
<feColorMatrix in="SourceAlpha" type="matrix" values="0 0 0 0 0 0 0 0 0 0 0 0 0 0 0 0 0 0 127 0" result="hardAlpha"/>
<feOffset dx="2" dy="2"/>
<feGaussianBlur stdDeviation="2.5"/>
<feComposite in2="hardAlpha" operator="out"/>
<feColorMatrix type="matrix" values="0 0 0 0 0 0 0 0 0 0 0 0 0 0 0 0 0 0 1 0"/>
<feBlend mode="normal" in2="BackgroundImageFix" result="effect1_dropShadow_413_1385"/>
<feBlend mode="normal" in="SourceGraphic" in2="effect1_dropShadow_413_1385" result="shape"/>
</filter>
<filter id="filter8_d_413_1385" x="796.123" y="3.1225" width="187.511" height="176.706" filterUnits="userSpaceOnUse" color-interpolation-filters="sRGB">
<feFlood flood-opacity="0" result="BackgroundImageFix"/>
<feColorMatrix in="SourceAlpha" type="matrix" values="0 0 0 0 0 0 0 0 0 0 0 0 0 0 0 0 0 0 127 0" result="hardAlpha"/>
<feOffset dx="2" dy="2"/>
<feGaussianBlur stdDeviation="2.5"/>
<feComposite in2="hardAlpha" operator="out"/>
<feColorMatrix type="matrix" values="0 0 0 0 0 0 0 0 0 0 0 0 0 0 0 0 0 0 1 0"/>
<feBlend mode="normal" in2="BackgroundImageFix" result="effect1_dropShadow_413_1385"/>
<feBlend mode="normal" in="SourceGraphic" in2="effect1_dropShadow_413_1385" result="shape"/>
</filter>
<linearGradient id="paint0_linear_413_1385" x1="1536" y1="52.8221" x2="1536" y2="187.541" gradientUnits="userSpaceOnUse">
<stop stop-color="white"/>
<stop offset="1" stop-color="#FF4040"/>
</linearGradient>
<linearGradient id="paint1_linear_413_1385" x1="1498.34" y1="55.9883" x2="1506.09" y2="84.9057" gradientUnits="userSpaceOnUse">
<stop stop-color="white"/>
<stop offset="1" stop-color="#FF4040"/>
</linearGradient>
<linearGradient id="paint2_linear_413_1385" x1="1733.95" y1="251" x2="1733.95" y2="335.542" gradientUnits="userSpaceOnUse">
<stop stop-color="white"/>
<stop offset="1" stop-color="#0057FF"/>
</linearGradient>
<linearGradient id="paint3_linear_413_1385" x1="1706.18" y1="264.438" x2="1701.32" y2="282.585" gradientUnits="userSpaceOnUse">
<stop stop-color="white"/>
<stop offset="1" stop-color="#0057FF"/>
</linearGradient>
<linearGradient id="paint4_linear_413_1385" x1="231.868" y1="10.9993" x2="231.868" y2="145.718" gradientUnits="userSpaceOnUse">
<stop stop-color="white"/>
<stop offset="1" stop-color="#0057FF"/>
</linearGradient>
<linearGradient id="paint5_linear_413_1385" x1="187.624" y1="32.4124" x2="179.875" y2="61.3297" gradientUnits="userSpaceOnUse">
<stop stop-color="white"/>
<stop offset="1" stop-color="#0057FF"/>
</linearGradient>
</defs>
</svg>
