<svg width="400" height="340" viewBox="0 0 400 340" fill="none" xmlns="http://www.w3.org/2000/svg">
<rect width="400" height="339.559" fill="#202020"/>
<path d="M128.971 112.939V148.039H120.421V112.939H128.971ZM170.767 119.839C174.234 119.839 176.984 120.889 179.017 122.989C181.084 125.089 182.117 128.006 182.117 131.739V148.039H173.617V132.889C173.617 131.089 173.134 129.706 172.167 128.739C171.234 127.739 169.934 127.239 168.267 127.239C166.601 127.239 165.284 127.739 164.317 128.739C163.384 129.706 162.917 131.089 162.917 132.889V148.039H154.417V132.889C154.417 131.089 153.934 129.706 152.967 128.739C152.034 127.739 150.734 127.239 149.067 127.239C147.401 127.239 146.084 127.739 145.117 128.739C144.184 129.706 143.717 131.089 143.717 132.889V148.039H135.167V120.139H143.717V123.639C144.584 122.472 145.717 121.556 147.117 120.889C148.517 120.189 150.101 119.839 151.867 119.839C153.967 119.839 155.834 120.289 157.467 121.189C159.134 122.089 160.434 123.372 161.367 125.039C162.334 123.506 163.651 122.256 165.317 121.289C166.984 120.322 168.801 119.839 170.767 119.839ZM186.397 134.039C186.397 131.172 186.93 128.656 187.997 126.489C189.097 124.322 190.58 122.656 192.447 121.489C194.314 120.322 196.397 119.739 198.697 119.739C200.664 119.739 202.38 120.139 203.847 120.939C205.347 121.739 206.497 122.789 207.297 124.089V120.139H215.847V148.039H207.297V144.089C206.464 145.389 205.297 146.439 203.797 147.239C202.33 148.039 200.614 148.439 198.647 148.439C196.38 148.439 194.314 147.856 192.447 146.689C190.58 145.489 189.097 143.806 187.997 141.639C186.93 139.439 186.397 136.906 186.397 134.039ZM207.297 134.089C207.297 131.956 206.697 130.272 205.497 129.039C204.33 127.806 202.897 127.189 201.197 127.189C199.497 127.189 198.047 127.806 196.847 129.039C195.68 130.239 195.097 131.906 195.097 134.039C195.097 136.172 195.68 137.872 196.847 139.139C198.047 140.372 199.497 140.989 201.197 140.989C202.897 140.989 204.33 140.372 205.497 139.139C206.697 137.906 207.297 136.222 207.297 134.089ZM232.633 119.739C234.599 119.739 236.316 120.139 237.783 120.939C239.283 121.739 240.433 122.789 241.233 124.089V120.139H249.783V147.989C249.783 150.556 249.266 152.872 248.233 154.939C247.233 157.039 245.683 158.706 243.583 159.939C241.516 161.172 238.933 161.789 235.833 161.789C231.699 161.789 228.349 160.806 225.783 158.839C223.216 156.906 221.749 154.272 221.383 150.939H229.833C230.099 152.006 230.733 152.839 231.733 153.439C232.733 154.072 233.966 154.389 235.433 154.389C237.199 154.389 238.599 153.872 239.633 152.839C240.699 151.839 241.233 150.222 241.233 147.989V144.039C240.399 145.339 239.249 146.406 237.783 147.239C236.316 148.039 234.599 148.439 232.633 148.439C230.333 148.439 228.249 147.856 226.383 146.689C224.516 145.489 223.033 143.806 221.933 141.639C220.866 139.439 220.333 136.906 220.333 134.039C220.333 131.172 220.866 128.656 221.933 126.489C223.033 124.322 224.516 122.656 226.383 121.489C228.249 120.322 230.333 119.739 232.633 119.739ZM241.233 134.089C241.233 131.956 240.633 130.272 239.433 129.039C238.266 127.806 236.833 127.189 235.133 127.189C233.433 127.189 231.983 127.806 230.783 129.039C229.616 130.239 229.033 131.906 229.033 134.039C229.033 136.172 229.616 137.872 230.783 139.139C231.983 140.372 233.433 140.989 235.133 140.989C236.833 140.989 238.266 140.372 239.433 139.139C240.633 137.906 241.233 136.222 241.233 134.089ZM282.268 133.639C282.268 134.439 282.218 135.272 282.118 136.139H262.768C262.901 137.872 263.451 139.206 264.418 140.139C265.418 141.039 266.635 141.489 268.068 141.489C270.201 141.489 271.685 140.589 272.518 138.789H281.618C281.151 140.622 280.301 142.272 279.068 143.739C277.868 145.206 276.351 146.356 274.518 147.189C272.685 148.022 270.635 148.439 268.368 148.439C265.635 148.439 263.201 147.856 261.068 146.689C258.935 145.522 257.268 143.856 256.068 141.689C254.868 139.522 254.268 136.989 254.268 134.089C254.268 131.189 254.851 128.656 256.018 126.489C257.218 124.322 258.885 122.656 261.018 121.489C263.151 120.322 265.601 119.739 268.368 119.739C271.068 119.739 273.468 120.306 275.568 121.439C277.668 122.572 279.301 124.189 280.468 126.289C281.668 128.389 282.268 130.839 282.268 133.639ZM273.518 131.389C273.518 129.922 273.018 128.756 272.018 127.889C271.018 127.022 269.768 126.589 268.268 126.589C266.835 126.589 265.618 127.006 264.618 127.839C263.651 128.672 263.051 129.856 262.818 131.389H273.518ZM129.215 216.439H140.415V223.039H120.665V187.939H129.215V216.439ZM157.194 223.439C154.46 223.439 151.994 222.856 149.794 221.689C147.627 220.522 145.91 218.856 144.644 216.689C143.41 214.522 142.794 211.989 142.794 209.089C142.794 206.222 143.427 203.706 144.694 201.539C145.96 199.339 147.694 197.656 149.894 196.489C152.094 195.322 154.56 194.739 157.294 194.739C160.027 194.739 162.494 195.322 164.694 196.489C166.894 197.656 168.627 199.339 169.894 201.539C171.16 203.706 171.794 206.222 171.794 209.089C171.794 211.956 171.144 214.489 169.844 216.689C168.577 218.856 166.827 220.522 164.594 221.689C162.394 222.856 159.927 223.439 157.194 223.439ZM157.194 216.039C158.827 216.039 160.21 215.439 161.344 214.239C162.51 213.039 163.094 211.322 163.094 209.089C163.094 206.856 162.527 205.139 161.394 203.939C160.294 202.739 158.927 202.139 157.294 202.139C155.627 202.139 154.244 202.739 153.144 203.939C152.044 205.106 151.494 206.822 151.494 209.089C151.494 211.322 152.027 213.039 153.094 214.239C154.194 215.439 155.56 216.039 157.194 216.039ZM174.629 209.039C174.629 206.172 175.163 203.656 176.229 201.489C177.329 199.322 178.813 197.656 180.679 196.489C182.546 195.322 184.629 194.739 186.929 194.739C188.896 194.739 190.613 195.139 192.079 195.939C193.579 196.739 194.729 197.789 195.529 199.089V195.139H204.079V223.039H195.529V219.089C194.696 220.389 193.529 221.439 192.029 222.239C190.563 223.039 188.846 223.439 186.879 223.439C184.613 223.439 182.546 222.856 180.679 221.689C178.813 220.489 177.329 218.806 176.229 216.639C175.163 214.439 174.629 211.906 174.629 209.039ZM195.529 209.089C195.529 206.956 194.929 205.272 193.729 204.039C192.563 202.806 191.129 202.189 189.429 202.189C187.729 202.189 186.279 202.806 185.079 204.039C183.913 205.239 183.329 206.906 183.329 209.039C183.329 211.172 183.913 212.872 185.079 214.139C186.279 215.372 187.729 215.989 189.429 215.989C191.129 215.989 192.563 215.372 193.729 214.139C194.929 212.906 195.529 211.222 195.529 209.089ZM208.565 209.039C208.565 206.172 209.098 203.656 210.165 201.489C211.265 199.322 212.748 197.656 214.615 196.489C216.482 195.322 218.565 194.739 220.865 194.739C222.698 194.739 224.365 195.122 225.865 195.889C227.398 196.656 228.598 197.689 229.465 198.989V186.039H238.015V223.039H229.465V219.039C228.665 220.372 227.515 221.439 226.015 222.239C224.548 223.039 222.832 223.439 220.865 223.439C218.565 223.439 216.482 222.856 214.615 221.689C212.748 220.489 211.265 218.806 210.165 216.639C209.098 214.439 208.565 211.906 208.565 209.039ZM229.465 209.089C229.465 206.956 228.865 205.272 227.665 204.039C226.498 202.806 225.065 202.189 223.365 202.189C221.665 202.189 220.215 202.806 219.015 204.039C217.848 205.239 217.265 206.906 217.265 209.039C217.265 211.172 217.848 212.872 219.015 214.139C220.215 215.372 221.665 215.989 223.365 215.989C225.065 215.989 226.498 215.372 227.665 214.139C228.865 212.906 229.465 211.222 229.465 209.089ZM248.201 223.439C246.701 223.439 245.467 223.006 244.501 222.139C243.567 221.239 243.101 220.139 243.101 218.839C243.101 217.506 243.567 216.389 244.501 215.489C245.467 214.589 246.701 214.139 248.201 214.139C249.667 214.139 250.867 214.589 251.801 215.489C252.767 216.389 253.251 217.506 253.251 218.839C253.251 220.139 252.767 221.239 251.801 222.139C250.867 223.006 249.667 223.439 248.201 223.439ZM262.312 223.439C260.812 223.439 259.579 223.006 258.612 222.139C257.679 221.239 257.212 220.139 257.212 218.839C257.212 217.506 257.679 216.389 258.612 215.489C259.579 214.589 260.812 214.139 262.312 214.139C263.779 214.139 264.979 214.589 265.912 215.489C266.879 216.389 267.362 217.506 267.362 218.839C267.362 220.139 266.879 221.239 265.912 222.139C264.979 223.006 263.779 223.439 262.312 223.439ZM276.423 223.439C274.923 223.439 273.69 223.006 272.723 222.139C271.79 221.239 271.323 220.139 271.323 218.839C271.323 217.506 271.79 216.389 272.723 215.489C273.69 214.589 274.923 214.139 276.423 214.139C277.89 214.139 279.09 214.589 280.023 215.489C280.99 216.389 281.473 217.506 281.473 218.839C281.473 220.139 280.99 221.239 280.023 222.139C279.09 223.006 277.89 223.439 276.423 223.439Z" fill="white"/>
</svg>
