<svg width="500" height="25" viewBox="0 0 500 25" fill="none" xmlns="http://www.w3.org/2000/svg">
<path d="M14 0H41L27.5 25H0L14 0Z" fill="#595959"/>
<path d="M55 0H82L68.5 25H41L55 0Z" fill="#595959"/>
<path d="M96 0H123L109.5 25H82L96 0Z" fill="#595959"/>
<path d="M137 0H164L150.5 25H123L137 0Z" fill="#595959"/>
<path d="M178 0H205L191.5 25H164L178 0Z" fill="#595959"/>
<path d="M219 0H246L232.5 25H205L219 0Z" fill="#595959"/>
<path d="M260 0H287L273.5 25H246L260 0Z" fill="#595959"/>
<path d="M301 0H328L314.5 25H287L301 0Z" fill="#595959"/>
<path d="M342 0H369L355.5 25H328L342 0Z" fill="#595959"/>
<path d="M383 0H410L396.5 25H369L383 0Z" fill="#595959"/>
<path d="M424 0H451L437.5 25H410L424 0Z" fill="#595959"/>
<path d="M464.659 0H491L477.829 25H451L464.659 0Z" fill="#595959"/>
</svg>
