<svg width="104" height="104" viewBox="0 0 104 104" fill="none" xmlns="http://www.w3.org/2000/svg">
<g filter="url(#filter0_d_635_96)">
<path d="M67.129 1H96.1613C98.8427 1 101 3.15726 101 5.83871V34.871C101 36.8266 99.8306 38.6008 98.0161 39.3468C96.2016 40.0927 94.125 39.6895 92.7339 38.2984L84.871 30.4355L67.3306 47.9758C65.4355 49.871 62.371 49.871 60.496 47.9758L54.0444 41.5242C52.1492 39.629 52.1492 36.5645 54.0444 34.6895L71.5847 17.1492L63.7016 9.26613C62.3105 7.875 61.9073 5.79839 62.6532 3.98387C63.3992 2.16935 65.1734 1 67.129 1ZM34.871 101H5.83871C3.15726 101 1 98.8427 1 96.1613V67.129C1 65.1734 2.16935 63.3992 3.98387 62.6532C5.79839 61.9073 7.875 62.3105 9.26613 63.7016L17.129 71.5645L34.6694 54.0242C36.5645 52.129 39.629 52.129 41.504 54.0242L47.9556 60.4758C49.8508 62.371 49.8508 65.4355 47.9556 67.3105L30.4153 84.8508L38.2782 92.7137C39.6694 94.1048 40.0726 96.1815 39.3266 97.996C38.5806 99.8105 36.8065 100.98 34.8508 100.98L34.871 101Z" fill="url(#paint0_linear_635_96)"/>
</g>
<defs>
<filter id="filter0_d_635_96" x="0" y="0" width="104" height="104" filterUnits="userSpaceOnUse" color-interpolation-filters="sRGB">
<feFlood flood-opacity="0" result="BackgroundImageFix"/>
<feColorMatrix in="SourceAlpha" type="matrix" values="0 0 0 0 0 0 0 0 0 0 0 0 0 0 0 0 0 0 127 0" result="hardAlpha"/>
<feOffset dx="1" dy="1"/>
<feGaussianBlur stdDeviation="1"/>
<feComposite in2="hardAlpha" operator="out"/>
<feColorMatrix type="matrix" values="0 0 0 0 0 0 0 0 0 0 0 0 0 0 0 0 0 0 1 0"/>
<feBlend mode="normal" in2="BackgroundImageFix" result="effect1_dropShadow_635_96"/>
<feBlend mode="normal" in="SourceGraphic" in2="effect1_dropShadow_635_96" result="shape"/>
</filter>
<linearGradient id="paint0_linear_635_96" x1="89.5" y1="11.5" x2="14" y2="87" gradientUnits="userSpaceOnUse">
<stop stop-color="#FF7F7F"/>
<stop offset="1" stop-color="#4145FF"/>
</linearGradient>
</defs>
</svg>
