<svg width="25" height="25" viewBox="0 0 25 25" fill="none" xmlns="http://www.w3.org/2000/svg">
<mask id="mask0_125_26" style="mask-type:alpha" maskUnits="userSpaceOnUse" x="0" y="0" width="25" height="25">
<rect x="0.647461" y="0.145508" width="24" height="24" fill="#D9D9D9"/>
</mask>
<g mask="url(#mask0_125_26)">
<path d="M5.64746 21.1455C5.09746 21.1455 4.62646 20.9498 4.23446 20.5585C3.84313 20.1665 3.64746 19.6955 3.64746 19.1455V5.14551C3.64746 4.59551 3.84313 4.12451 4.23446 3.73251C4.62646 3.34117 5.09746 3.14551 5.64746 3.14551H10.6475V5.14551H5.64746V19.1455H19.6475V13.7955L21.6475 15.7955V19.1455C21.6475 19.6955 21.4518 20.1665 21.0605 20.5585C20.6685 20.9498 20.1975 21.1455 19.6475 21.1455H5.64746ZM6.64746 17.1455L9.64746 13.1455L11.8975 16.1455L14.8975 12.1455L18.6475 17.1455H6.64746ZM22.1975 13.5455L19.0975 10.4455C18.7475 10.6788 18.3725 10.8538 17.9725 10.9705C17.5725 11.0872 17.1475 11.1455 16.6975 11.1455C15.4641 11.1455 14.4141 10.7082 13.5475 9.83351C12.6808 8.95817 12.2475 7.89551 12.2475 6.64551C12.2475 5.39551 12.6851 4.33284 13.5605 3.45751C14.4351 2.58284 15.4975 2.14551 16.7475 2.14551C17.9975 2.14551 19.0601 2.58284 19.9355 3.45751C20.8101 4.33284 21.2475 5.39551 21.2475 6.64551C21.2475 7.09551 21.1808 7.52884 21.0475 7.94551C20.9141 8.36217 20.7475 8.74551 20.5475 9.09551L23.5975 12.1455L22.1975 13.5455ZM16.7475 9.14551C17.4475 9.14551 18.0391 8.90384 18.5225 8.42051C19.0058 7.93717 19.2475 7.34551 19.2475 6.64551C19.2475 5.94551 19.0058 5.35384 18.5225 4.87051C18.0391 4.38717 17.4475 4.14551 16.7475 4.14551C16.0475 4.14551 15.4558 4.38717 14.9725 4.87051C14.4891 5.35384 14.2475 5.94551 14.2475 6.64551C14.2475 7.34551 14.4891 7.93717 14.9725 8.42051C15.4558 8.90384 16.0475 9.14551 16.7475 9.14551Z" fill="white"/>
</g>
</svg>
