<svg width="103" height="13" viewBox="0 0 103 13" fill="none" xmlns="http://www.w3.org/2000/svg">
<path d="M7.17 3.09C6.8 2.9 6.395 2.735 5.955 2.595C5.515 2.455 5.085 2.385 4.665 2.385C4.085 2.385 3.62 2.52 3.27 2.79C2.93 3.06 2.76 3.42 2.76 3.87C2.76 4.21 2.87 4.5 3.09 4.74C3.31 4.97 3.6 5.17 3.96 5.34C4.32 5.51 4.695 5.67 5.085 5.82C5.425 5.95 5.76 6.095 6.09 6.255C6.42 6.415 6.715 6.615 6.975 6.855C7.245 7.095 7.455 7.39 7.605 7.74C7.765 8.09 7.845 8.525 7.845 9.045C7.845 9.615 7.7 10.135 7.41 10.605C7.13 11.075 6.725 11.445 6.195 11.715C5.665 11.985 5.035 12.12 4.305 12.12C3.825 12.12 3.365 12.065 2.925 11.955C2.495 11.845 2.095 11.705 1.725 11.535C1.355 11.355 1.025 11.17 0.735 10.98L1.38 9.84C1.62 10.01 1.895 10.175 2.205 10.335C2.515 10.485 2.84 10.61 3.18 10.71C3.52 10.8 3.85 10.845 4.17 10.845C4.51 10.845 4.845 10.785 5.175 10.665C5.515 10.535 5.795 10.34 6.015 10.08C6.235 9.82 6.345 9.475 6.345 9.045C6.345 8.675 6.245 8.37 6.045 8.13C5.855 7.88 5.6 7.67 5.28 7.5C4.96 7.32 4.62 7.16 4.26 7.02C3.92 6.89 3.575 6.75 3.225 6.6C2.875 6.44 2.55 6.25 2.25 6.03C1.95 5.8 1.71 5.52 1.53 5.19C1.35 4.86 1.26 4.46 1.26 3.99C1.26 3.42 1.395 2.925 1.665 2.505C1.945 2.075 2.325 1.74 2.805 1.5C3.285 1.25 3.835 1.115 4.455 1.095C5.155 1.095 5.77 1.18 6.3 1.35C6.84 1.52 7.315 1.73 7.725 1.98L7.17 3.09ZM14.9855 11.43C14.7055 11.65 14.3705 11.825 13.9805 11.955C13.5905 12.085 13.2005 12.15 12.8105 12.15C12.1305 12.15 11.5355 12.015 11.0255 11.745C10.5155 11.475 10.1155 11.1 9.82547 10.62C9.54547 10.13 9.40547 9.555 9.40547 8.895C9.40547 8.235 9.55547 7.66 9.85547 7.17C10.1655 6.68 10.5655 6.305 11.0555 6.045C11.5555 5.775 12.0905 5.64 12.6605 5.64C13.1605 5.64 13.6055 5.71 13.9955 5.85C14.3955 5.99 14.7355 6.18 15.0155 6.42L14.3255 7.32C14.1455 7.18 13.9255 7.055 13.6655 6.945C13.4055 6.835 13.1105 6.78 12.7805 6.78C12.4205 6.78 12.0855 6.875 11.7755 7.065C11.4755 7.245 11.2355 7.495 11.0555 7.815C10.8855 8.135 10.8005 8.495 10.8005 8.895C10.8005 9.275 10.8905 9.63 11.0705 9.96C11.2505 10.28 11.5005 10.535 11.8205 10.725C12.1405 10.905 12.5055 10.995 12.9155 10.995C13.1855 10.995 13.4305 10.955 13.6505 10.875C13.8805 10.795 14.0855 10.685 14.2655 10.545L14.9855 11.43ZM18.0313 5.79L18.1663 7.59L18.0913 7.35C18.2513 6.97 18.4813 6.65 18.7813 6.39C19.0913 6.12 19.4113 5.915 19.7413 5.775C20.0813 5.625 20.3763 5.55 20.6263 5.55L20.5513 6.93C20.0813 6.9 19.6663 6.99 19.3063 7.2C18.9563 7.41 18.6763 7.69 18.4663 8.04C18.2663 8.39 18.1663 8.765 18.1663 9.165V12H16.7863V5.79H18.0313ZM21.6223 8.835C21.6223 8.215 21.7673 7.655 22.0573 7.155C22.3573 6.655 22.7673 6.26 23.2873 5.97C23.8073 5.68 24.3973 5.535 25.0573 5.535C25.7373 5.535 26.3323 5.68 26.8423 5.97C27.3523 6.26 27.7473 6.655 28.0273 7.155C28.3073 7.655 28.4473 8.215 28.4473 8.835C28.4473 9.455 28.3073 10.02 28.0273 10.53C27.7473 11.03 27.3473 11.425 26.8273 11.715C26.3173 12.005 25.7223 12.15 25.0423 12.15C24.3823 12.15 23.7923 12.015 23.2723 11.745C22.7623 11.465 22.3573 11.08 22.0573 10.59C21.7673 10.09 21.6223 9.505 21.6223 8.835ZM23.0173 8.85C23.0173 9.25 23.1073 9.615 23.2873 9.945C23.4673 10.265 23.7073 10.52 24.0073 10.71C24.3173 10.9 24.6573 10.995 25.0273 10.995C25.4173 10.995 25.7623 10.9 26.0623 10.71C26.3723 10.52 26.6123 10.265 26.7823 9.945C26.9523 9.615 27.0373 9.25 27.0373 8.85C27.0373 8.45 26.9523 8.09 26.7823 7.77C26.6123 7.44 26.3723 7.18 26.0623 6.99C25.7623 6.79 25.4173 6.69 25.0273 6.69C24.6473 6.69 24.3023 6.79 23.9923 6.99C23.6923 7.19 23.4523 7.455 23.2723 7.785C23.1023 8.105 23.0173 8.46 23.0173 8.85ZM30.3361 0.389999H31.7311V12H30.3361V0.389999ZM34.1447 0.389999H35.5397V12H34.1447V0.389999ZM43.2994 3.06H44.6944V5.82H46.4044V6.915H44.6944V12H43.2994V6.915H42.1594V5.82H43.2994V3.06ZM47.55 8.835C47.55 8.215 47.695 7.655 47.985 7.155C48.285 6.655 48.695 6.26 49.215 5.97C49.735 5.68 50.325 5.535 50.985 5.535C51.665 5.535 52.26 5.68 52.77 5.97C53.28 6.26 53.675 6.655 53.955 7.155C54.235 7.655 54.375 8.215 54.375 8.835C54.375 9.455 54.235 10.02 53.955 10.53C53.675 11.03 53.275 11.425 52.755 11.715C52.245 12.005 51.65 12.15 50.97 12.15C50.31 12.15 49.72 12.015 49.2 11.745C48.69 11.465 48.285 11.08 47.985 10.59C47.695 10.09 47.55 9.505 47.55 8.835ZM48.945 8.85C48.945 9.25 49.035 9.615 49.215 9.945C49.395 10.265 49.635 10.52 49.935 10.71C50.245 10.9 50.585 10.995 50.955 10.995C51.345 10.995 51.69 10.9 51.99 10.71C52.3 10.52 52.54 10.265 52.71 9.945C52.88 9.615 52.965 9.25 52.965 8.85C52.965 8.45 52.88 8.09 52.71 7.77C52.54 7.44 52.3 7.18 51.99 6.99C51.69 6.79 51.345 6.69 50.955 6.69C50.575 6.69 50.23 6.79 49.92 6.99C49.62 7.19 49.38 7.455 49.2 7.785C49.03 8.105 48.945 8.46 48.945 8.85ZM61.3549 1.155H62.8099V10.605H68.3149V12H61.3549V1.155ZM69.801 8.835C69.801 8.215 69.946 7.655 70.236 7.155C70.536 6.655 70.946 6.26 71.466 5.97C71.986 5.68 72.576 5.535 73.236 5.535C73.916 5.535 74.511 5.68 75.021 5.97C75.531 6.26 75.926 6.655 76.206 7.155C76.486 7.655 76.626 8.215 76.626 8.835C76.626 9.455 76.486 10.02 76.206 10.53C75.926 11.03 75.526 11.425 75.006 11.715C74.496 12.005 73.901 12.15 73.221 12.15C72.561 12.15 71.971 12.015 71.451 11.745C70.941 11.465 70.536 11.08 70.236 10.59C69.946 10.09 69.801 9.505 69.801 8.835ZM71.196 8.85C71.196 9.25 71.286 9.615 71.466 9.945C71.646 10.265 71.886 10.52 72.186 10.71C72.496 10.9 72.836 10.995 73.206 10.995C73.596 10.995 73.941 10.9 74.241 10.71C74.551 10.52 74.791 10.265 74.961 9.945C75.131 9.615 75.216 9.25 75.216 8.85C75.216 8.45 75.131 8.09 74.961 7.77C74.791 7.44 74.551 7.18 74.241 6.99C73.941 6.79 73.596 6.69 73.206 6.69C72.826 6.69 72.481 6.79 72.171 6.99C71.871 7.19 71.631 7.455 71.451 7.785C71.281 8.105 71.196 8.46 71.196 8.85ZM81.0948 12.15C80.5148 12.15 79.9848 12.025 79.5048 11.775C79.0348 11.525 78.6598 11.16 78.3798 10.68C78.1098 10.19 77.9748 9.595 77.9748 8.895C77.9748 8.205 78.1198 7.61 78.4098 7.11C78.6998 6.6 79.0848 6.21 79.5648 5.94C80.0548 5.67 80.5898 5.535 81.1698 5.535C81.7498 5.535 82.2398 5.67 82.6398 5.94C83.0398 6.2 83.3448 6.51 83.5548 6.87L83.4648 7.11L83.5998 5.79H84.8898V12H83.4948V10.38L83.6448 10.74C83.6048 10.84 83.5148 10.97 83.3748 11.13C83.2448 11.28 83.0648 11.435 82.8348 11.595C82.6148 11.755 82.3598 11.89 82.0698 12C81.7798 12.1 81.4548 12.15 81.0948 12.15ZM81.4698 10.995C81.8198 10.995 82.1348 10.93 82.4148 10.8C82.6948 10.67 82.9248 10.49 83.1048 10.26C83.2948 10.02 83.4248 9.735 83.4948 9.405V8.19C83.4148 7.89 83.2748 7.63 83.0748 7.41C82.8748 7.18 82.6348 7.005 82.3548 6.885C82.0748 6.755 81.7648 6.69 81.4248 6.69C81.0548 6.69 80.7148 6.78 80.4048 6.96C80.0948 7.14 79.8448 7.39 79.6548 7.71C79.4748 8.03 79.3848 8.405 79.3848 8.835C79.3848 9.235 79.4798 9.6 79.6698 9.93C79.8598 10.26 80.1148 10.52 80.4348 10.71C80.7548 10.9 81.0998 10.995 81.4698 10.995ZM89.8239 12.15C89.2539 12.15 88.7339 12.015 88.2639 11.745C87.8039 11.465 87.4389 11.075 87.1689 10.575C86.8989 10.065 86.7639 9.48 86.7639 8.82C86.7639 8.13 86.9039 7.54 87.1839 7.05C87.4739 6.56 87.8639 6.185 88.3539 5.925C88.8439 5.665 89.3939 5.535 90.0039 5.535C90.4939 5.535 90.9589 5.64 91.3989 5.85C91.8489 6.06 92.1989 6.35 92.4489 6.72L92.3889 7.215V0.389999H93.7689V12H92.3739V10.455L92.5239 10.845C92.2339 11.225 91.8589 11.54 91.3989 11.79C90.9389 12.03 90.4139 12.15 89.8239 12.15ZM90.2589 10.965C90.6289 10.965 90.9589 10.9 91.2489 10.77C91.5389 10.63 91.7789 10.44 91.9689 10.2C92.1589 9.96 92.2939 9.675 92.3739 9.345V8.175C92.2939 7.875 92.1489 7.615 91.9389 7.395C91.7389 7.165 91.4939 6.985 91.2039 6.855C90.9239 6.715 90.6089 6.645 90.2589 6.645C89.8789 6.645 89.5289 6.74 89.2089 6.93C88.8989 7.11 88.6489 7.36 88.4589 7.68C88.2689 8 88.1739 8.37 88.1739 8.79C88.1739 9.2 88.2689 9.57 88.4589 9.9C88.6489 10.22 88.9039 10.48 89.2239 10.68C89.5439 10.87 89.8889 10.965 90.2589 10.965ZM95.4905 11.205C95.4905 10.985 95.5705 10.8 95.7305 10.65C95.9005 10.49 96.0855 10.41 96.2855 10.41C96.4655 10.41 96.6355 10.49 96.7955 10.65C96.9655 10.8 97.0505 10.985 97.0505 11.205C97.0505 11.445 96.9655 11.64 96.7955 11.79C96.6355 11.93 96.4655 12 96.2855 12C96.0855 12 95.9005 11.93 95.7305 11.79C95.5705 11.64 95.4905 11.445 95.4905 11.205ZM98.01 11.205C98.01 10.985 98.09 10.8 98.25 10.65C98.42 10.49 98.605 10.41 98.805 10.41C98.985 10.41 99.155 10.49 99.315 10.65C99.485 10.8 99.57 10.985 99.57 11.205C99.57 11.445 99.485 11.64 99.315 11.79C99.155 11.93 98.985 12 98.805 12C98.605 12 98.42 11.93 98.25 11.79C98.09 11.64 98.01 11.445 98.01 11.205ZM100.53 11.205C100.53 10.985 100.61 10.8 100.77 10.65C100.94 10.49 101.125 10.41 101.325 10.41C101.505 10.41 101.675 10.49 101.835 10.65C102.005 10.8 102.09 10.985 102.09 11.205C102.09 11.445 102.005 11.64 101.835 11.79C101.675 11.93 101.505 12 101.325 12C101.125 12 100.94 11.93 100.77 11.79C100.61 11.64 100.53 11.445 100.53 11.205Z" fill="#232323"/>
</svg>
